<svg width="41" height="40" viewBox="0 0 41 40" fill="none" xmlns="http://www.w3.org/2000/svg">
<g filter="url(#filter0_d_59_1862)">
<path d="M18.2961 1.38196C18.8948 -0.460659 21.5017 -0.460657 22.1004 1.38196L25.0253 10.384C25.293 11.208 26.061 11.766 26.9274 11.766H36.3927C38.3302 11.766 39.1357 14.2452 37.5683 15.384L29.9107 20.9476C29.2097 21.4568 28.9164 22.3596 29.1841 23.1836L32.1091 32.1857C32.7078 34.0283 30.5988 35.5605 29.0314 34.4217L21.3738 28.8582C20.6728 28.3489 19.7236 28.3489 19.0227 28.8582L11.3651 34.4217C9.79766 35.5605 7.6887 34.0283 8.2874 32.1857L11.2123 23.1836C11.4801 22.3596 11.1868 21.4568 10.4858 20.9476L2.82821 15.384C1.26078 14.2452 2.06633 11.766 4.00378 11.766H13.4691C14.3355 11.766 15.1034 11.208 15.3712 10.384L18.2961 1.38196Z" fill="#FFFF00"/>
<path d="M18.7715 1.53665C19.2205 0.154686 21.176 0.154686 21.625 1.53665L24.5498 10.5386C24.8845 11.5686 25.8447 12.2661 26.9277 12.2661H36.3926C37.8456 12.2661 38.4497 14.1249 37.2744 14.979L29.6172 20.5435C28.741 21.1801 28.3743 22.3084 28.709 23.3384L31.6338 32.3404C32.0826 33.7222 30.5007 34.8712 29.3252 34.0171L21.668 28.4536C20.7917 27.817 19.6047 27.817 18.7285 28.4536L11.0713 34.0171C9.89579 34.8712 8.31393 33.7222 8.7627 32.3404L11.6875 23.3384C12.0222 22.3084 11.6555 21.1801 10.7793 20.5435L3.12207 14.979C1.94682 14.1249 2.55092 12.2661 4.00391 12.2661H13.4688C14.5518 12.2661 15.512 11.5686 15.8467 10.5386L18.7715 1.53665Z" stroke="black"/>
</g>
<defs>
<filter id="filter0_d_59_1862" x="0" y="0" width="40.3965" height="39.8128" filterUnits="userSpaceOnUse" color-interpolation-filters="sRGB">
<feFlood flood-opacity="0" result="BackgroundImageFix"/>
<feColorMatrix in="SourceAlpha" type="matrix" values="0 0 0 0 0 0 0 0 0 0 0 0 0 0 0 0 0 0 127 0" result="hardAlpha"/>
<feOffset dy="3"/>
<feGaussianBlur stdDeviation="1"/>
<feComposite in2="hardAlpha" operator="out"/>
<feColorMatrix type="matrix" values="0 0 0 0 0 0 0 0 0 0 0 0 0 0 0 0 0 0 0.25 0"/>
<feBlend mode="normal" in2="BackgroundImageFix" result="effect1_dropShadow_59_1862"/>
<feBlend mode="normal" in="SourceGraphic" in2="effect1_dropShadow_59_1862" result="shape"/>
</filter>
</defs>
</svg>
