<svg viewBox="0 0 70 70" fill="none" xmlns="http://www.w3.org/2000/svg">
<path d="M17.5 32.0833H29.1667" stroke="black" stroke-width="2" stroke-linecap="round" stroke-linejoin="round"/>
<path d="M23.3333 26.25V37.9167" stroke="black" stroke-width="2" stroke-linecap="round" stroke-linejoin="round"/>
<path d="M43.75 35H43.7792" stroke="black" stroke-width="2" stroke-linecap="round" stroke-linejoin="round"/>
<path d="M52.5 29.1667H52.5292" stroke="black" stroke-width="2" stroke-linecap="round" stroke-linejoin="round"/>
<path d="M50.5166 14.5833H19.4833C16.5966 14.584 13.8126 15.6548 11.6696 17.5888C9.52657 19.5229 8.17664 22.1827 7.88075 25.0542C7.86325 25.2058 7.85159 25.3487 7.83117 25.4975C7.59492 27.4633 5.83325 42.1633 5.83325 46.6667C5.83325 48.9873 6.75512 51.2129 8.39607 52.8538C10.037 54.4948 12.2626 55.4167 14.5833 55.4167C17.4999 55.4167 18.9583 53.9583 20.4166 52.5L24.5407 48.3758C25.6345 47.2818 27.1179 46.667 28.6649 46.6667H41.3349C42.8819 46.667 44.3654 47.2818 45.4591 48.3758L49.5832 52.5C51.0416 53.9583 52.4999 55.4167 55.4166 55.4167C57.7372 55.4167 59.9628 54.4948 61.6038 52.8538C63.2447 51.2129 64.1666 48.9873 64.1666 46.6667C64.1666 42.1604 62.4049 27.4633 62.1687 25.4975C62.1483 25.3517 62.1366 25.2058 62.1191 25.0571C61.8239 22.1851 60.4742 19.5245 58.3311 17.5899C56.188 15.6553 53.4037 14.5841 50.5166 14.5833Z" stroke="black" stroke-width="2" stroke-linecap="round" stroke-linejoin="round"/>
</svg>
