<svg width="34" height="50" viewBox="0 0 34 50" fill="none" xmlns="http://www.w3.org/2000/svg">
<g filter="url(#filter0_d_41_129924)">
<path d="M20.917 39.416C21.4689 39.4163 21.9168 39.8641 21.917 40.416C21.917 40.9681 21.4691 41.4158 20.917 41.416H13.084C12.5317 41.416 12.084 40.9683 12.084 40.416C12.0842 39.8639 12.5318 39.416 13.084 39.416H20.917ZM22.875 31.583C23.4273 31.583 23.875 32.0307 23.875 32.583C23.875 33.1353 23.4273 33.583 22.875 33.583H11.125C10.5727 33.583 10.125 33.1353 10.125 32.583C10.125 32.0307 10.5727 31.583 11.125 31.583H22.875ZM17 0.25C20.3815 0.25 23.6245 1.59329 26.0156 3.98438C28.4066 6.37545 29.75 9.61858 29.75 13C29.7499 15.7797 28.6852 18.5946 26.5117 20.5684C25.016 22.0653 24.1915 23.266 23.8555 24.9463C23.7469 25.4875 23.2201 25.8387 22.6787 25.7305C22.1374 25.6221 21.7865 25.0951 21.8945 24.5537C22.3412 22.3205 23.4729 20.7801 25.1055 19.1475L25.1436 19.1113C26.8655 17.5615 27.7499 15.2985 27.75 13C27.75 10.149 26.6175 7.41444 24.6016 5.39844C22.5855 3.38242 19.8511 2.25 17 2.25C14.1489 2.25 11.4145 3.38242 9.39844 5.39844C7.38254 7.41444 6.25 10.149 6.25 13C6.25005 14.7625 6.58039 16.8333 8.89453 19.1475C10.3214 20.5744 11.6571 22.312 12.1055 24.5537C12.2135 25.0951 11.8626 25.6221 11.3213 25.7305C10.7799 25.8387 10.2531 25.4875 10.1445 24.9463C9.80962 23.2717 8.7949 21.876 7.48047 20.5615C4.70327 17.7843 4.25005 15.154 4.25 13C4.25 9.61858 5.5934 6.37545 7.98438 3.98438C10.3755 1.59329 13.6185 0.25 17 0.25Z" fill="black"/>
<path d="M20.917 39.416L20.9171 39.166H20.917V39.416ZM21.917 40.416H22.167V40.4159L21.917 40.416ZM20.917 41.416V41.666H20.9171L20.917 41.416ZM12.084 40.416L11.834 40.4159V40.416H12.084ZM26.0156 3.98438L26.1924 3.8076L26.1924 3.8076L26.0156 3.98438ZM29.75 13L30 13V13H29.75ZM26.5117 20.5684L26.3435 20.3831L26.3349 20.3917L26.5117 20.5684ZM23.8555 24.9463L24.1006 24.9955L24.1006 24.9953L23.8555 24.9463ZM22.6787 25.7305L22.6296 25.9756L22.6297 25.9756L22.6787 25.7305ZM21.8945 24.5537L21.6494 24.5047L21.6494 24.5048L21.8945 24.5537ZM25.1055 19.1475L24.9333 18.966L24.9287 18.9707L25.1055 19.1475ZM25.1436 19.1113L24.9763 18.9254L24.9715 18.93L25.1436 19.1113ZM27.75 13L28 13V13H27.75ZM24.6016 5.39844L24.7783 5.22166L24.7783 5.22166L24.6016 5.39844ZM9.39844 5.39844L9.22166 5.22166L9.22166 5.22166L9.39844 5.39844ZM6.25 13H6V13L6.25 13ZM8.89453 19.1475L9.07131 18.9707L9.07131 18.9707L8.89453 19.1475ZM12.1055 24.5537L12.3506 24.5048L12.3506 24.5047L12.1055 24.5537ZM11.3213 25.7305L11.3703 25.9756L11.3704 25.9756L11.3213 25.7305ZM10.1445 24.9463L9.89939 24.9953L9.89941 24.9954L10.1445 24.9463ZM7.48047 20.5615L7.65725 20.3848L7.65725 20.3847L7.48047 20.5615ZM4.25 13H4V13L4.25 13ZM7.98438 3.98438L7.8076 3.8076L7.80759 3.8076L7.98438 3.98438ZM20.917 39.416L20.9169 39.666C21.3309 39.6662 21.6668 40.0022 21.667 40.4161L21.917 40.416L22.167 40.4159C22.1667 39.7259 21.607 39.1663 20.9171 39.166L20.917 39.416ZM21.917 40.416H21.667C21.667 40.8299 21.3311 41.1658 20.9169 41.166L20.917 41.416L20.9171 41.666C21.607 41.6657 22.167 41.1063 22.167 40.416H21.917ZM20.917 41.416V41.166H13.084V41.416V41.666H20.917V41.416ZM13.084 41.416V41.166C12.6698 41.166 12.334 40.8302 12.334 40.416H12.084H11.834C11.834 41.1064 12.3936 41.666 13.084 41.666V41.416ZM12.084 40.416L12.334 40.4161C12.3341 40.0019 12.67 39.666 13.084 39.666V39.416V39.166C12.3937 39.166 11.8342 39.7259 11.834 40.4159L12.084 40.416ZM13.084 39.416V39.666H20.917V39.416V39.166H13.084V39.416ZM22.875 31.583V31.833C23.2892 31.833 23.625 32.1688 23.625 32.583H23.875H24.125C24.125 31.8927 23.5654 31.333 22.875 31.333V31.583ZM23.875 32.583H23.625C23.625 32.9972 23.2892 33.333 22.875 33.333V33.583V33.833C23.5654 33.833 24.125 33.2734 24.125 32.583H23.875ZM22.875 33.583V33.333H11.125V33.583V33.833H22.875V33.583ZM11.125 33.583V33.333C10.7108 33.333 10.375 32.9972 10.375 32.583H10.125H9.875C9.875 33.2734 10.4346 33.833 11.125 33.833V33.583ZM10.125 32.583H10.375C10.375 32.1688 10.7108 31.833 11.125 31.833V31.583V31.333C10.4346 31.333 9.875 31.8927 9.875 32.583H10.125ZM11.125 31.583V31.833H22.875V31.583V31.333H11.125V31.583ZM17 0.25V0.5C20.3152 0.5 23.4946 1.81695 25.8388 4.16115L26.0156 3.98438L26.1924 3.8076C23.7544 1.36963 20.4478 0 17 0V0.25ZM26.0156 3.98438L25.8388 4.16115C28.1829 6.50534 29.5 9.68488 29.5 13H29.75H30C30 9.55227 28.6303 6.24555 26.1924 3.8076L26.0156 3.98438ZM29.75 13L29.5 13C29.4999 15.7181 28.4587 18.4626 26.3437 20.3833L26.5117 20.5684L26.6798 20.7534C28.9118 18.7266 29.9999 15.8412 30 13L29.75 13ZM26.5117 20.5684L26.3349 20.3917C24.8225 21.9053 23.9601 23.1483 23.6103 24.8973L23.8555 24.9463L24.1006 24.9953C24.423 23.3836 25.2095 22.2254 26.6886 20.7451L26.5117 20.5684ZM23.8555 24.9463L23.6103 24.8971C23.5289 25.3031 23.1337 25.5665 22.7277 25.4853L22.6787 25.7305L22.6297 25.9756C23.3064 26.1109 23.9649 25.672 24.1006 24.9955L23.8555 24.9463ZM22.6787 25.7305L22.7278 25.4853C22.322 25.4041 22.0586 25.0089 22.1397 24.6027L21.8945 24.5537L21.6494 24.5048C21.5143 25.1813 21.9528 25.8401 22.6296 25.9756L22.6787 25.7305ZM21.8945 24.5537L22.1397 24.6027C22.5726 22.4383 23.6662 20.9403 25.2822 19.3242L25.1055 19.1475L24.9287 18.9707C23.2797 20.6198 22.1098 22.2027 21.6494 24.5047L21.8945 24.5537ZM25.1055 19.1475L25.2775 19.3288L25.3156 19.2927L25.1436 19.1113L24.9715 18.93L24.9334 18.9661L25.1055 19.1475ZM25.1436 19.1113L25.3108 19.2972C27.0918 17.6942 27.9999 15.3604 28 13L27.75 13L27.5 13C27.4999 15.2366 26.6393 17.4288 24.9763 18.9255L25.1436 19.1113ZM27.75 13H28C28 10.0827 26.8411 7.28455 24.7783 5.22166L24.6016 5.39844L24.4248 5.57521C26.3938 7.54432 27.5 10.2153 27.5 13H27.75ZM24.6016 5.39844L24.7783 5.22166C22.7154 3.15875 19.9174 2 17 2V2.25V2.5C19.7848 2.5 22.4557 3.60609 24.4248 5.57521L24.6016 5.39844ZM17 2.25V2C14.0826 2 11.2846 3.15875 9.22166 5.22166L9.39844 5.39844L9.57521 5.57521C11.5443 3.60609 14.2152 2.5 17 2.5V2.25ZM9.39844 5.39844L9.22166 5.22166C7.15887 7.28455 6 10.0827 6 13H6.25H6.5C6.5 10.2153 7.6062 7.54432 9.57522 5.57521L9.39844 5.39844ZM6.25 13L6 13C6.00002 13.8976 6.08412 14.8876 6.46941 15.952C6.85499 17.0172 7.53749 18.144 8.71775 19.3242L8.89453 19.1475L9.07131 18.9707C7.93743 17.8368 7.29768 16.7711 6.93955 15.7818C6.58112 14.7916 6.50002 13.8649 6.5 13L6.25 13ZM8.89453 19.1475L8.71775 19.3242C10.1306 20.7372 11.4261 22.432 11.8603 24.6027L12.1055 24.5537L12.3506 24.5047C11.888 22.1921 10.5123 20.4117 9.07131 18.9707L8.89453 19.1475ZM12.1055 24.5537L11.8603 24.6027C11.9414 25.0089 11.678 25.4041 11.2722 25.4853L11.3213 25.7305L11.3704 25.9756C12.0472 25.8401 12.4857 25.1813 12.3506 24.5048L12.1055 24.5537ZM11.3213 25.7305L11.2723 25.4853C10.8663 25.5665 10.4711 25.3031 10.3896 24.8971L10.1445 24.9463L9.89941 24.9954C10.0351 25.672 10.6936 26.1109 11.3703 25.9756L11.3213 25.7305ZM10.1445 24.9463L10.3897 24.8973C10.0406 23.1518 8.98572 21.7133 7.65725 20.3848L7.48047 20.5615L7.30369 20.7383C8.60408 22.0387 9.57865 23.3916 9.89939 24.9953L10.1445 24.9463ZM7.48047 20.5615L7.65725 20.3847C4.93798 17.6655 4.50005 15.1052 4.5 13L4.25 13L4 13C4.00005 15.2029 4.46855 17.9032 7.30369 20.7383L7.48047 20.5615ZM4.25 13H4.5C4.5 9.68488 5.81706 6.50534 8.16116 4.16115L7.98438 3.98438L7.80759 3.8076C5.36974 6.24555 4 9.55227 4 13H4.25ZM7.98438 3.98438L8.16115 4.16115C10.5054 1.81695 13.6848 0.5 17 0.5V0.25V0C13.5522 0 10.2456 1.36962 7.8076 3.8076L7.98438 3.98438Z" fill="black"/>
</g>
<defs>
<filter id="filter0_d_41_129924" x="0" y="0" width="34" height="49.666" filterUnits="userSpaceOnUse" color-interpolation-filters="sRGB">
<feFlood flood-opacity="0" result="BackgroundImageFix"/>
<feColorMatrix in="SourceAlpha" type="matrix" values="0 0 0 0 0 0 0 0 0 0 0 0 0 0 0 0 0 0 127 0" result="hardAlpha"/>
<feOffset dy="4"/>
<feGaussianBlur stdDeviation="2"/>
<feComposite in2="hardAlpha" operator="out"/>
<feColorMatrix type="matrix" values="0 0 0 0 0 0 0 0 0 0 0 0 0 0 0 0 0 0 0.25 0"/>
<feBlend mode="normal" in2="BackgroundImageFix" result="effect1_dropShadow_41_129924"/>
<feBlend mode="normal" in="SourceGraphic" in2="effect1_dropShadow_41_129924" result="shape"/>
</filter>
</defs>
</svg>
