<svg width="100" height="100" viewBox="0 0 100 100" fill="none" xmlns="http://www.w3.org/2000/svg">
<path d="M79.1667 12.5H20.8333C16.231 12.5 12.5 16.231 12.5 20.8333V79.1667C12.5 83.769 16.231 87.5 20.8333 87.5H79.1667C83.769 87.5 87.5 83.769 87.5 79.1667V20.8333C87.5 16.231 83.769 12.5 79.1667 12.5Z" stroke="black" stroke-width="2" stroke-linecap="round" stroke-linejoin="round"/>
<path d="M37.4998 45.8334C42.1022 45.8334 45.8332 42.1024 45.8332 37.5C45.8332 32.8976 42.1022 29.1667 37.4998 29.1667C32.8975 29.1667 29.1665 32.8976 29.1665 37.5C29.1665 42.1024 32.8975 45.8334 37.4998 45.8334Z" stroke="black" stroke-width="2" stroke-linecap="round" stroke-linejoin="round"/>
<path d="M87.5 62.5L74.6417 49.6417C73.0789 48.0794 70.9597 47.2018 68.75 47.2018C66.5403 47.2018 64.4211 48.0794 62.8583 49.6417L25 87.5" stroke="black" stroke-width="2" stroke-linecap="round" stroke-linejoin="round"/>
</svg>
