<svg width="47" height="47" viewBox="0 0 47 47" fill="none" xmlns="http://www.w3.org/2000/svg">
<path d="M29.3753 11.515L27.417 19.5833H38.8341C39.4421 19.5833 40.0418 19.7249 40.5857 19.9968C41.1295 20.2688 41.6026 20.6636 41.9674 21.15C42.3322 21.6364 42.5788 22.2011 42.6876 22.7994C42.7963 23.3976 42.7643 24.013 42.5941 24.5967L38.0312 40.2633C37.7939 41.0769 37.2991 41.7915 36.6212 42.3C35.9432 42.8085 35.1186 43.0833 34.2712 43.0833H7.83366C6.79489 43.0833 5.79867 42.6707 5.06416 41.9362C4.32964 41.2017 3.91699 40.2054 3.91699 39.1667V23.5C3.91699 22.4612 4.32964 21.465 5.06416 20.7305C5.79867 19.996 6.79489 19.5833 7.83366 19.5833H13.2387C13.9673 19.583 14.6814 19.3793 15.3007 18.9953C15.92 18.6113 16.4198 18.0621 16.7441 17.4096L23.5003 3.91667C24.4238 3.92811 25.3328 4.14809 26.1594 4.56017C26.9859 4.97226 27.7086 5.5658 28.2736 6.29644C28.8385 7.02709 29.231 7.87595 29.4218 8.77961C29.6126 9.68327 29.5967 10.6184 29.3753 11.515Z" stroke="black" stroke-width="2" stroke-linecap="round" stroke-linejoin="round"/>
<path d="M13.708 19.5833V43.0833" stroke="black" stroke-width="2" stroke-linecap="round" stroke-linejoin="round"/>
</svg>
