<svg viewBox="0 0 381 112" fill="none" xmlns="http://www.w3.org/2000/svg">
<g clip-path="url(#clip0_59_1288)">
<path d="M7.45238 0H0V5.89474H7.45238V0Z" fill="white" stroke="#BBBBBB"/>
<path d="M14.9048 0H7.45239V5.89474H14.9048V0Z" fill="white" stroke="#BBBBBB"/>
<path d="M22.3572 0H14.9048V5.89474H22.3572V0Z" fill="white" stroke="#BBBBBB"/>
<path d="M29.8093 0H22.3569V5.89474H29.8093V0Z" fill="white" stroke="#BBBBBB"/>
<path d="M37.2622 0H29.8098V5.89474H37.2622V0Z" fill="white" stroke="#BBBBBB"/>
<path d="M44.7143 0H37.262V5.89474H44.7143V0Z" fill="white" stroke="#BBBBBB"/>
<path d="M52.1667 0H44.7144V5.89474H52.1667V0Z" fill="white" stroke="#BBBBBB"/>
<path d="M59.6191 0H52.1667V5.89474H59.6191V0Z" fill="white" stroke="#BBBBBB"/>
<path d="M7.45238 5.89474H0V11.7895H7.45238V5.89474Z" fill="white" stroke="#BBBBBB"/>
<path d="M14.9048 5.89473H7.45239V11.7895H14.9048V5.89473Z" fill="white" stroke="#BBBBBB"/>
<path d="M22.3572 5.89473H14.9048V11.7895H22.3572V5.89473Z" fill="white" stroke="#BBBBBB"/>
<path d="M29.8093 5.89473H22.3569V11.7895H29.8093V5.89473Z" fill="white" stroke="#BBBBBB"/>
<path d="M37.2622 5.89473H29.8098V11.7895H37.2622V5.89473Z" fill="white" stroke="#BBBBBB"/>
<path d="M44.7143 5.89473H37.262V11.7895H44.7143V5.89473Z" fill="white" stroke="#BBBBBB"/>
<path d="M52.1667 5.89473H44.7144V11.7895H52.1667V5.89473Z" fill="white" stroke="#BBBBBB"/>
<path d="M59.6191 5.89473H52.1667V11.7895H59.6191V5.89473Z" fill="white" stroke="#BBBBBB"/>
<path d="M67.0715 5.89473H59.6191V11.7895H67.0715V5.89473Z" fill="white" stroke="#BBBBBB"/>
<path d="M74.5239 5.89473H67.0715V11.7895H74.5239V5.89473Z" fill="white" stroke="#BBBBBB"/>
<path d="M81.9761 5.89473H74.5237V11.7895H81.9761V5.89473Z" fill="white" stroke="#BBBBBB"/>
<path d="M89.4287 5.89473H81.9763V11.7895H89.4287V5.89473Z" fill="white" stroke="#BBBBBB"/>
<path d="M7.45238 11.7895H0V17.6842H7.45238V11.7895Z" fill="white" stroke="#BBBBBB"/>
<path d="M14.9048 11.7895H7.45239V17.6842H14.9048V11.7895Z" fill="white" stroke="#BBBBBB"/>
<path d="M22.3572 11.7895H14.9048V17.6842H22.3572V11.7895Z" fill="black" stroke="#BBBBBB"/>
<path d="M29.8093 11.7895H22.3569V17.6842H29.8093V11.7895Z" fill="black" stroke="#BBBBBB"/>
<path d="M37.2622 11.7895H29.8098V17.6842H37.2622V11.7895Z" fill="black" stroke="#BBBBBB"/>
<path d="M44.7143 11.7895H37.262V17.6842H44.7143V11.7895Z" fill="black" stroke="#BBBBBB"/>
<path d="M52.1667 11.7895H44.7144V17.6842H52.1667V11.7895Z" fill="black" stroke="#BBBBBB"/>
<path d="M59.6191 11.7895H52.1667V17.6842H59.6191V11.7895Z" fill="white" stroke="#BBBBBB"/>
<path d="M67.0715 11.7895H59.6191V17.6842H67.0715V11.7895Z" fill="white" stroke="#BBBBBB"/>
<path d="M74.5239 11.7895H67.0715V17.6842H74.5239V11.7895Z" fill="white" stroke="#BBBBBB"/>
<path d="M81.9761 11.7895H74.5237V17.6842H81.9761V11.7895Z" fill="white" stroke="#BBBBBB"/>
<path d="M89.4287 11.7895H81.9763V17.6842H89.4287V11.7895Z" fill="white" stroke="#BBBBBB"/>
<path d="M96.8808 11.7895H89.4285V17.6842H96.8808V11.7895Z" fill="white" stroke="#BBBBBB"/>
<path d="M104.333 11.7895H96.8809V17.6842H104.333V11.7895Z" fill="white" stroke="#BBBBBB"/>
<path d="M7.45238 17.6842H0V23.5789H7.45238V17.6842Z" fill="white" stroke="#BBBBBB"/>
<path d="M14.9048 17.6842H7.45239V23.5789H14.9048V17.6842Z" fill="white" stroke="#BBBBBB"/>
<path d="M22.3572 17.6842H14.9048V23.5789H22.3572V17.6842Z" fill="black" stroke="#BBBBBB"/>
<path d="M29.8093 17.6842H22.3569V23.5789H29.8093V17.6842Z" fill="black" stroke="#BBBBBB"/>
<path d="M37.2622 17.6842H29.8098V23.5789H37.2622V17.6842Z" fill="black" stroke="#BBBBBB"/>
<path d="M44.7143 17.6842H37.262V23.5789H44.7143V17.6842Z" fill="black" stroke="#BBBBBB"/>
<path d="M52.1667 17.6842H44.7144V23.5789H52.1667V17.6842Z" fill="black" stroke="#BBBBBB"/>
<path d="M59.6191 17.6842H52.1667V23.5789H59.6191V17.6842Z" fill="black" stroke="#BBBBBB"/>
<path d="M67.0715 17.6842H59.6191V23.5789H67.0715V17.6842Z" fill="white" stroke="#BBBBBB"/>
<path d="M74.5239 17.6842H67.0715V23.5789H74.5239V17.6842Z" fill="white" stroke="#BBBBBB"/>
<path d="M81.9761 17.6842H74.5237V23.5789H81.9761V17.6842Z" fill="white" stroke="#BBBBBB"/>
<path d="M89.4287 17.6842H81.9763V23.5789H89.4287V17.6842Z" fill="white" stroke="#BBBBBB"/>
<path d="M96.8808 17.6842H89.4285V23.5789H96.8808V17.6842Z" fill="white" stroke="#BBBBBB"/>
<path d="M104.333 17.6842H96.8809V23.5789H104.333V17.6842Z" fill="white" stroke="#BBBBBB"/>
<path d="M111.786 17.6842H104.333V23.5789H111.786V17.6842Z" fill="white" stroke="#BBBBBB"/>
<path d="M119.238 17.6842H111.786V23.5789H119.238V17.6842Z" fill="white" stroke="#BBBBBB"/>
<path d="M126.69 17.6842H119.238V23.5789H126.69V17.6842Z" fill="white" stroke="#BBBBBB"/>
<path d="M223.572 17.6842H216.119V23.5789H223.572V17.6842Z" fill="black" stroke="#BBBBBB"/>
<path d="M231.024 17.6842H223.572V23.5789H231.024V17.6842Z" fill="black" stroke="#BBBBBB"/>
<path d="M7.45238 23.5789H0V29.4737H7.45238V23.5789Z" fill="white" stroke="#BBBBBB"/>
<path d="M14.9048 23.5789H7.45239V29.4737H14.9048V23.5789Z" fill="white" stroke="#BBBBBB"/>
<path d="M22.3572 23.5789H14.9048V29.4737H22.3572V23.5789Z" fill="black" stroke="#BBBBBB"/>
<path d="M29.8093 23.5789H22.3569V29.4737H29.8093V23.5789Z" fill="black" stroke="#BBBBBB"/>
<path d="M37.2622 23.5789H29.8098V29.4737H37.2622V23.5789Z" fill="white" stroke="#BBBBBB"/>
<path d="M44.7143 23.5789H37.262V29.4737H44.7143V23.5789Z" fill="white" stroke="#BBBBBB"/>
<path d="M52.1667 23.5789H44.7144V29.4737H52.1667V23.5789Z" fill="white" stroke="#BBBBBB"/>
<path d="M59.6191 23.5789H52.1667V29.4737H59.6191V23.5789Z" fill="black" stroke="#BBBBBB"/>
<path d="M67.0715 23.5789H59.6191V29.4737H67.0715V23.5789Z" fill="black" stroke="#BBBBBB"/>
<path d="M74.5239 23.5789H67.0715V29.4737H74.5239V23.5789Z" fill="white" stroke="#BBBBBB"/>
<path d="M81.9761 23.5789H74.5237V29.4737H81.9761V23.5789Z" fill="white" stroke="#BBBBBB"/>
<path d="M89.4287 23.5789H81.9763V29.4737H89.4287V23.5789Z" fill="white" stroke="#BBBBBB"/>
<path d="M96.8808 23.5789H89.4285V29.4737H96.8808V23.5789Z" fill="white" stroke="#BBBBBB"/>
<path d="M104.333 23.5789H96.8809V29.4737H104.333V23.5789Z" fill="white" stroke="#BBBBBB"/>
<path d="M111.786 23.5789H104.333V29.4737H111.786V23.5789Z" fill="white" stroke="#BBBBBB"/>
<path d="M119.238 23.5789H111.786V29.4737H119.238V23.5789Z" fill="white" stroke="#BBBBBB"/>
<path d="M126.69 23.5789H119.238V29.4737H126.69V23.5789Z" fill="white" stroke="#BBBBBB"/>
<path d="M134.143 23.5789H126.69V29.4737H134.143V23.5789Z" fill="white" stroke="#BBBBBB"/>
<path d="M141.595 23.5789H134.143V29.4737H141.595V23.5789Z" fill="white" stroke="#BBBBBB"/>
<path d="M223.572 23.5789H216.119V29.4737H223.572V23.5789Z" fill="black" stroke="#BBBBBB"/>
<path d="M231.024 23.5789H223.572V29.4737H231.024V23.5789Z" fill="black" stroke="#BBBBBB"/>
<path d="M22.3572 29.4737H14.9048V35.3684H22.3572V29.4737Z" fill="black" stroke="#BBBBBB"/>
<path d="M29.8093 29.4737H22.3569V35.3684H29.8093V29.4737Z" fill="black" stroke="#BBBBBB"/>
<path d="M37.2622 29.4737H29.8098V35.3684H37.2622V29.4737Z" fill="white" stroke="#BBBBBB"/>
<path d="M44.7143 29.4737H37.262V35.3684H44.7143V29.4737Z" fill="white" stroke="#BBBBBB"/>
<path d="M52.1667 29.4737H44.7144V35.3684H52.1667V29.4737Z" fill="white" stroke="#BBBBBB"/>
<path d="M59.6191 29.4737H52.1667V35.3684H59.6191V29.4737Z" fill="black" stroke="#BBBBBB"/>
<path d="M67.0715 29.4737H59.6191V35.3684H67.0715V29.4737Z" fill="black" stroke="#BBBBBB"/>
<path d="M74.5239 29.4737H67.0715V35.3684H74.5239V29.4737Z" fill="white" stroke="#BBBBBB"/>
<path d="M81.9761 29.4737H74.5237V35.3684H81.9761V29.4737Z" fill="white" stroke="#BBBBBB"/>
<path d="M89.4287 29.4737H81.9763V35.3684H89.4287V29.4737Z" fill="white" stroke="#BBBBBB"/>
<path d="M96.8808 29.4737H89.4285V35.3684H96.8808V29.4737Z" fill="white" stroke="#BBBBBB"/>
<path d="M104.333 29.4737H96.8809V35.3684H104.333V29.4737Z" fill="white" stroke="#BBBBBB"/>
<path d="M111.786 29.4737H104.333V35.3684H111.786V29.4737Z" fill="white" stroke="#BBBBBB"/>
<path d="M119.238 29.4737H111.786V35.3684H119.238V29.4737Z" fill="white" stroke="#BBBBBB"/>
<path d="M126.69 29.4737H119.238V35.3684H126.69V29.4737Z" fill="white" stroke="#BBBBBB"/>
<path d="M134.143 29.4737H126.69V35.3684H134.143V29.4737Z" fill="white" stroke="#BBBBBB"/>
<path d="M141.595 29.4737H134.143V35.3684H141.595V29.4737Z" fill="white" stroke="#BBBBBB"/>
<path d="M149.048 29.4737H141.595V35.3684H149.048V29.4737Z" fill="white" stroke="#BBBBBB"/>
<path d="M156.5 29.4737H149.048V35.3684H156.5V29.4737Z" fill="white" stroke="#BBBBBB"/>
<path d="M163.952 29.4737H156.5V35.3684H163.952V29.4737Z" fill="white" stroke="#BBBBBB"/>
<path d="M223.572 29.4737H216.119V35.3684H223.572V29.4737Z" fill="black" stroke="#BBBBBB"/>
<path d="M231.024 29.4737H223.572V35.3684H231.024V29.4737Z" fill="black" stroke="#BBBBBB"/>
<path d="M22.3572 35.3684H14.9048V41.2632H22.3572V35.3684Z" fill="black" stroke="#BBBBBB"/>
<path d="M29.8093 35.3684H22.3569V41.2632H29.8093V35.3684Z" fill="black" stroke="#BBBBBB"/>
<path d="M37.2622 35.3684H29.8098V41.2632H37.2622V35.3684Z" fill="white" stroke="#BBBBBB"/>
<path d="M44.7143 35.3684H37.262V41.2632H44.7143V35.3684Z" fill="white" stroke="#BBBBBB"/>
<path d="M52.1667 35.3684H44.7144V41.2632H52.1667V35.3684Z" fill="white" stroke="#BBBBBB"/>
<path d="M59.6191 35.3684H52.1667V41.2632H59.6191V35.3684Z" fill="black" stroke="#BBBBBB"/>
<path d="M67.0715 35.3684H59.6191V41.2632H67.0715V35.3684Z" fill="black" stroke="#BBBBBB"/>
<path d="M74.5239 35.3684H67.0715V41.2632H74.5239V35.3684Z" fill="white" stroke="#BBBBBB"/>
<path d="M81.9761 35.3684H74.5237V41.2632H81.9761V35.3684Z" fill="black" stroke="#BBBBBB"/>
<path d="M89.4287 35.3684H81.9763V41.2632H89.4287V35.3684Z" fill="black" stroke="#BBBBBB"/>
<path d="M96.8808 35.3684H89.4285V41.2632H96.8808V35.3684Z" fill="white" stroke="#BBBBBB"/>
<path d="M104.333 35.3684H96.8809V41.2632H104.333V35.3684Z" fill="white" stroke="#BBBBBB"/>
<path d="M111.786 35.3684H104.333V41.2632H111.786V35.3684Z" fill="white" stroke="#BBBBBB"/>
<path d="M119.238 35.3684H111.786V41.2632H119.238V35.3684Z" fill="white" stroke="#BBBBBB"/>
<path d="M126.69 35.3684H119.238V41.2632H126.69V35.3684Z" fill="white" stroke="#BBBBBB"/>
<path d="M134.143 35.3684H126.69V41.2632H134.143V35.3684Z" fill="white" stroke="#BBBBBB"/>
<path d="M141.595 35.3684H134.143V41.2632H141.595V35.3684Z" fill="white" stroke="#BBBBBB"/>
<path d="M149.048 35.3684H141.595V41.2632H149.048V35.3684Z" fill="white" stroke="#BBBBBB"/>
<path d="M156.5 35.3684H149.048V41.2632H156.5V35.3684Z" fill="white" stroke="#BBBBBB"/>
<path d="M163.952 35.3684H156.5V41.2632H163.952V35.3684Z" fill="white" stroke="#BBBBBB"/>
<path d="M171.405 35.3684H163.952V41.2632H171.405V35.3684Z" fill="white" stroke="#BBBBBB"/>
<path d="M178.857 35.3684H171.405V41.2632H178.857V35.3684Z" fill="white" stroke="#BBBBBB"/>
<path d="M186.309 35.3684H178.857V41.2632H186.309V35.3684Z" fill="white" stroke="#BBBBBB"/>
<path d="M223.572 35.3684H216.119V41.2632H223.572V35.3684Z" fill="black" stroke="#BBBBBB"/>
<path d="M231.024 35.3684H223.572V41.2632H231.024V35.3684Z" fill="black" stroke="#BBBBBB"/>
<path d="M245.929 35.3684H238.476V41.2632H245.929V35.3684Z" fill="black" stroke="#BBBBBB"/>
<path d="M253.381 35.3684H245.928V41.2632H253.381V35.3684Z" fill="black" stroke="#BBBBBB"/>
<path d="M275.738 35.3684H268.286V41.2632H275.738V35.3684Z" fill="black" stroke="#BBBBBB"/>
<path d="M283.19 35.3684H275.738V41.2632H283.19V35.3684Z" fill="black" stroke="#BBBBBB"/>
<path d="M22.3572 41.2632H14.9048V47.1579H22.3572V41.2632Z" fill="black" stroke="#BBBBBB"/>
<path d="M29.8093 41.2632H22.3569V47.1579H29.8093V41.2632Z" fill="black" stroke="#BBBBBB"/>
<path d="M37.2622 41.2632H29.8098V47.1579H37.2622V41.2632Z" fill="white" stroke="#BBBBBB"/>
<path d="M44.7143 41.2632H37.262V47.1579H44.7143V41.2632Z" fill="white" stroke="#BBBBBB"/>
<path d="M52.1667 41.2632H44.7144V47.1579H52.1667V41.2632Z" fill="white" stroke="#BBBBBB"/>
<path d="M59.6191 41.2632H52.1667V47.1579H59.6191V41.2632Z" fill="black" stroke="#BBBBBB"/>
<path d="M67.0715 41.2632H59.6191V47.1579H67.0715V41.2632Z" fill="black" stroke="#BBBBBB"/>
<path d="M74.5239 41.2632H67.0715V47.1579H74.5239V41.2632Z" fill="white" stroke="#BBBBBB"/>
<path d="M81.9761 41.2632H74.5237V47.1579H81.9761V41.2632Z" fill="black" stroke="#BBBBBB"/>
<path d="M89.4287 41.2632H81.9763V47.1579H89.4287V41.2632Z" fill="black" stroke="#BBBBBB"/>
<path d="M96.8808 41.2632H89.4285V47.1579H96.8808V41.2632Z" fill="white" stroke="#BBBBBB"/>
<path d="M104.333 41.2632H96.8809V47.1579H104.333V41.2632Z" fill="white" stroke="#BBBBBB"/>
<path d="M111.786 41.2632H104.333V47.1579H111.786V41.2632Z" fill="white" stroke="#BBBBBB"/>
<path d="M119.238 41.2632H111.786V47.1579H119.238V41.2632Z" fill="white" stroke="#BBBBBB"/>
<path d="M126.69 41.2632H119.238V47.1579H126.69V41.2632Z" fill="white" stroke="#BBBBBB"/>
<path d="M134.143 41.2632H126.69V47.1579H134.143V41.2632Z" fill="white" stroke="#BBBBBB"/>
<path d="M141.595 41.2632H134.143V47.1579H141.595V41.2632Z" fill="white" stroke="#BBBBBB"/>
<path d="M149.048 41.2632H141.595V47.1579H149.048V41.2632Z" fill="white" stroke="#BBBBBB"/>
<path d="M156.5 41.2632H149.048V47.1579H156.5V41.2632Z" fill="white" stroke="#BBBBBB"/>
<path d="M163.952 41.2632H156.5V47.1579H163.952V41.2632Z" fill="white" stroke="#BBBBBB"/>
<path d="M171.405 41.2632H163.952V47.1579H171.405V41.2632Z" fill="black" stroke="#BBBBBB"/>
<path d="M178.857 41.2632H171.405V47.1579H178.857V41.2632Z" fill="black" stroke="#BBBBBB"/>
<path d="M186.309 41.2632H178.857V47.1579H186.309V41.2632Z" fill="black" stroke="#BBBBBB"/>
<path d="M193.762 41.2632H186.31V47.1579H193.762V41.2632Z" fill="black" stroke="#BBBBBB"/>
<path d="M201.214 41.2632H193.762V47.1579H201.214V41.2632Z" fill="white" stroke="#BBBBBB"/>
<path d="M208.667 41.2632H201.214V47.1579H208.667V41.2632Z" fill="white" stroke="#BBBBBB"/>
<path d="M223.572 41.2632H216.119V47.1579H223.572V41.2632Z" fill="black" stroke="#BBBBBB"/>
<path d="M231.024 41.2632H223.572V47.1579H231.024V41.2632Z" fill="black" stroke="#BBBBBB"/>
<path d="M245.929 41.2632H238.476V47.1579H245.929V41.2632Z" fill="black" stroke="#BBBBBB"/>
<path d="M253.381 41.2632H245.928V47.1579H253.381V41.2632Z" fill="black" stroke="#BBBBBB"/>
<path d="M275.738 41.2632H268.286V47.1579H275.738V41.2632Z" fill="black" stroke="#BBBBBB"/>
<path d="M283.19 41.2632H275.738V47.1579H283.19V41.2632Z" fill="black" stroke="#BBBBBB"/>
<path d="M22.3572 47.1579H14.9048V53.0526H22.3572V47.1579Z" fill="black" stroke="#BBBBBB"/>
<path d="M29.8093 47.1579H22.3569V53.0526H29.8093V47.1579Z" fill="black" stroke="#BBBBBB"/>
<path d="M37.2622 47.1579H29.8098V53.0526H37.2622V47.1579Z" fill="black" stroke="#BBBBBB"/>
<path d="M44.7143 47.1579H37.262V53.0526H44.7143V47.1579Z" fill="black" stroke="#BBBBBB"/>
<path d="M52.1667 47.1579H44.7144V53.0526H52.1667V47.1579Z" fill="black" stroke="#BBBBBB"/>
<path d="M59.6191 47.1579H52.1667V53.0526H59.6191V47.1579Z" fill="black" stroke="#BBBBBB"/>
<path d="M67.0715 47.1579H59.6191V53.0526H67.0715V47.1579Z" fill="white" stroke="#BBBBBB"/>
<path d="M74.5239 47.1579H67.0715V53.0526H74.5239V47.1579Z" fill="white" stroke="#BBBBBB"/>
<path d="M81.9761 47.1579H74.5237V53.0526H81.9761V47.1579Z" fill="white" stroke="#BBBBBB"/>
<path d="M89.4287 47.1579H81.9763V53.0526H89.4287V47.1579Z" fill="white" stroke="#BBBBBB"/>
<path d="M96.8808 47.1579H89.4285V53.0526H96.8808V47.1579Z" fill="white" stroke="#BBBBBB"/>
<path d="M104.333 47.1579H96.8809V53.0526H104.333V47.1579Z" fill="white" stroke="#BBBBBB"/>
<path d="M111.786 47.1579H104.333V53.0526H111.786V47.1579Z" fill="white" stroke="#BBBBBB"/>
<path d="M119.238 47.1579H111.786V53.0526H119.238V47.1579Z" fill="white" stroke="#BBBBBB"/>
<path d="M126.69 47.1579H119.238V53.0526H126.69V47.1579Z" fill="white" stroke="#BBBBBB"/>
<path d="M134.143 47.1579H126.69V53.0526H134.143V47.1579Z" fill="white" stroke="#BBBBBB"/>
<path d="M141.595 47.1579H134.143V53.0526H141.595V47.1579Z" fill="white" stroke="#BBBBBB"/>
<path d="M149.048 47.1579H141.595V53.0526H149.048V47.1579Z" fill="white" stroke="#BBBBBB"/>
<path d="M156.5 47.1579H149.048V53.0526H156.5V47.1579Z" fill="white" stroke="#BBBBBB"/>
<path d="M163.952 47.1579H156.5V53.0526H163.952V47.1579Z" fill="black" stroke="#BBBBBB"/>
<path d="M171.405 47.1579H163.952V53.0526H171.405V47.1579Z" fill="black" stroke="#BBBBBB"/>
<path d="M178.857 47.1579H171.405V53.0526H178.857V47.1579Z" fill="black" stroke="#BBBBBB"/>
<path d="M186.309 47.1579H178.857V53.0526H186.309V47.1579Z" fill="black" stroke="#BBBBBB"/>
<path d="M193.762 47.1579H186.31V53.0526H193.762V47.1579Z" fill="black" stroke="#BBBBBB"/>
<path d="M201.214 47.1579H193.762V53.0526H201.214V47.1579Z" fill="black" stroke="#BBBBBB"/>
<path d="M208.667 47.1579H201.214V53.0526H208.667V47.1579Z" fill="white" stroke="#BBBBBB"/>
<path d="M216.119 47.1579H208.667V53.0526H216.119V47.1579Z" fill="white" stroke="#BBBBBB"/>
<path d="M223.572 47.1579H216.119V53.0526H223.572V47.1579Z" fill="black" stroke="#BBBBBB"/>
<path d="M231.024 47.1579H223.572V53.0526H231.024V47.1579Z" fill="black" stroke="#BBBBBB"/>
<path d="M268.286 47.1579H260.833V53.0526H268.286V47.1579Z" fill="black" stroke="#BBBBBB"/>
<path d="M275.738 47.1579H268.286V53.0526H275.738V47.1579Z" fill="black" stroke="#BBBBBB"/>
<path d="M283.19 47.1579H275.738V53.0526H283.19V47.1579Z" fill="black" stroke="#BBBBBB"/>
<path d="M290.643 47.1579H283.19V53.0526H290.643V47.1579Z" fill="black" stroke="#BBBBBB"/>
<path d="M22.3572 53.0526H14.9048V58.9474H22.3572V53.0526Z" fill="black" stroke="#BBBBBB"/>
<path d="M29.8093 53.0526H22.3569V58.9474H29.8093V53.0526Z" fill="black" stroke="#BBBBBB"/>
<path d="M37.2622 53.0526H29.8098V58.9474H37.2622V53.0526Z" fill="black" stroke="#BBBBBB"/>
<path d="M44.7143 53.0526H37.262V58.9474H44.7143V53.0526Z" fill="black" stroke="#BBBBBB"/>
<path d="M52.1667 53.0526H44.7144V58.9474H52.1667V53.0526Z" fill="black" stroke="#BBBBBB"/>
<path d="M59.6191 53.0526H52.1667V58.9474H59.6191V53.0526Z" fill="white" stroke="#BBBBBB"/>
<path d="M67.0715 53.0526H59.6191V58.9474H67.0715V53.0526Z" fill="white" stroke="#BBBBBB"/>
<path d="M74.5239 53.0526H67.0715V58.9474H74.5239V53.0526Z" fill="white" stroke="#BBBBBB"/>
<path d="M81.9761 53.0526H74.5237V58.9474H81.9761V53.0526Z" fill="black" stroke="#BBBBBB"/>
<path d="M89.4287 53.0526H81.9763V58.9474H89.4287V53.0526Z" fill="black" stroke="#BBBBBB"/>
<path d="M96.8808 53.0526H89.4285V58.9474H96.8808V53.0526Z" fill="white" stroke="#BBBBBB"/>
<path d="M104.333 53.0526H96.8809V58.9474H104.333V53.0526Z" fill="black" stroke="#BBBBBB"/>
<path d="M111.786 53.0526H104.333V58.9474H111.786V53.0526Z" fill="black" stroke="#BBBBBB"/>
<path d="M119.238 53.0526H111.786V58.9474H119.238V53.0526Z" fill="white" stroke="#BBBBBB"/>
<path d="M126.69 53.0526H119.238V58.9474H126.69V53.0526Z" fill="white" stroke="#BBBBBB"/>
<path d="M134.143 53.0526H126.69V58.9474H134.143V53.0526Z" fill="black" stroke="#BBBBBB"/>
<path d="M141.595 53.0526H134.143V58.9474H141.595V53.0526Z" fill="black" stroke="#BBBBBB"/>
<path d="M149.048 53.0526H141.595V58.9474H149.048V53.0526Z" fill="white" stroke="#BBBBBB"/>
<path d="M156.5 53.0526H149.048V58.9474H156.5V53.0526Z" fill="black" stroke="#BBBBBB"/>
<path d="M163.952 53.0526H156.5V58.9474H163.952V53.0526Z" fill="black" stroke="#BBBBBB"/>
<path d="M171.405 53.0526H163.952V58.9474H171.405V53.0526Z" fill="white" stroke="#BBBBBB"/>
<path d="M178.857 53.0526H171.405V58.9474H178.857V53.0526Z" fill="white" stroke="#BBBBBB"/>
<path d="M186.309 53.0526H178.857V58.9474H186.309V53.0526Z" fill="white" stroke="#BBBBBB"/>
<path d="M193.762 53.0526H186.31V58.9474H193.762V53.0526Z" fill="white" stroke="#BBBBBB"/>
<path d="M201.214 53.0526H193.762V58.9474H201.214V53.0526Z" fill="black" stroke="#BBBBBB"/>
<path d="M208.667 53.0526H201.214V58.9474H208.667V53.0526Z" fill="black" stroke="#BBBBBB"/>
<path d="M216.119 53.0526H208.667V58.9474H216.119V53.0526Z" fill="white" stroke="#BBBBBB"/>
<path d="M223.572 53.0526H216.119V58.9474H223.572V53.0526Z" fill="black" stroke="#BBBBBB"/>
<path d="M231.024 53.0526H223.572V58.9474H231.024V53.0526Z" fill="black" stroke="#BBBBBB"/>
<path d="M238.476 53.0526H231.024V58.9474H238.476V53.0526Z" fill="white" stroke="#BBBBBB"/>
<path d="M245.929 53.0526H238.476V58.9474H245.929V53.0526Z" fill="black" stroke="#BBBBBB"/>
<path d="M253.381 53.0526H245.928V58.9474H253.381V53.0526Z" fill="black" stroke="#BBBBBB"/>
<path d="M268.286 53.0526H260.833V58.9474H268.286V53.0526Z" fill="black" stroke="#BBBBBB"/>
<path d="M275.738 53.0526H268.286V58.9474H275.738V53.0526Z" fill="black" stroke="#BBBBBB"/>
<path d="M283.19 53.0526H275.738V58.9474H283.19V53.0526Z" fill="black" stroke="#BBBBBB"/>
<path d="M290.643 53.0526H283.19V58.9474H290.643V53.0526Z" fill="black" stroke="#BBBBBB"/>
<path d="M22.3572 58.9474H14.9048V64.8421H22.3572V58.9474Z" fill="black" stroke="#BBBBBB"/>
<path d="M29.8093 58.9474H22.3569V64.8421H29.8093V58.9474Z" fill="black" stroke="#BBBBBB"/>
<path d="M37.2622 58.9474H29.8098V64.8421H37.2622V58.9474Z" fill="white" stroke="#BBBBBB"/>
<path d="M44.7143 58.9474H37.262V64.8421H44.7143V58.9474Z" fill="white" stroke="#BBBBBB"/>
<path d="M52.1667 58.9474H44.7144V64.8421H52.1667V58.9474Z" fill="white" stroke="#BBBBBB"/>
<path d="M59.6191 58.9474H52.1667V64.8421H59.6191V58.9474Z" fill="white" stroke="#BBBBBB"/>
<path d="M67.0715 58.9474H59.6191V64.8421H67.0715V58.9474Z" fill="white" stroke="#BBBBBB"/>
<path d="M74.5239 58.9474H67.0715V64.8421H74.5239V58.9474Z" fill="white" stroke="#BBBBBB"/>
<path d="M81.9761 58.9474H74.5237V64.8421H81.9761V58.9474Z" fill="black" stroke="#BBBBBB"/>
<path d="M89.4287 58.9474H81.9763V64.8421H89.4287V58.9474Z" fill="black" stroke="#BBBBBB"/>
<path d="M96.8808 58.9474H89.4285V64.8421H96.8808V58.9474Z" fill="white" stroke="#BBBBBB"/>
<path d="M104.333 58.9474H96.8809V64.8421H104.333V58.9474Z" fill="black" stroke="#BBBBBB"/>
<path d="M111.786 58.9474H104.333V64.8421H111.786V58.9474Z" fill="black" stroke="#BBBBBB"/>
<path d="M119.238 58.9474H111.786V64.8421H119.238V58.9474Z" fill="white" stroke="#BBBBBB"/>
<path d="M126.69 58.9474H119.238V64.8421H126.69V58.9474Z" fill="white" stroke="#BBBBBB"/>
<path d="M134.143 58.9474H126.69V64.8421H134.143V58.9474Z" fill="black" stroke="#BBBBBB"/>
<path d="M141.595 58.9474H134.143V64.8421H141.595V58.9474Z" fill="black" stroke="#BBBBBB"/>
<path d="M149.048 58.9474H141.595V64.8421H149.048V58.9474Z" fill="white" stroke="#BBBBBB"/>
<path d="M156.5 58.9474H149.048V64.8421H156.5V58.9474Z" fill="black" stroke="#BBBBBB"/>
<path d="M163.952 58.9474H156.5V64.8421H163.952V58.9474Z" fill="black" stroke="#BBBBBB"/>
<path d="M171.405 58.9474H163.952V64.8421H171.405V58.9474Z" fill="white" stroke="#BBBBBB"/>
<path d="M178.857 58.9474H171.405V64.8421H178.857V58.9474Z" fill="white" stroke="#BBBBBB"/>
<path d="M186.309 58.9474H178.857V64.8421H186.309V58.9474Z" fill="white" stroke="#BBBBBB"/>
<path d="M193.762 58.9474H186.31V64.8421H193.762V58.9474Z" fill="white" stroke="#BBBBBB"/>
<path d="M201.214 58.9474H193.762V64.8421H201.214V58.9474Z" fill="black" stroke="#BBBBBB"/>
<path d="M208.667 58.9474H201.214V64.8421H208.667V58.9474Z" fill="black" stroke="#BBBBBB"/>
<path d="M216.119 58.9474H208.667V64.8421H216.119V58.9474Z" fill="white" stroke="#BBBBBB"/>
<path d="M223.572 58.9474H216.119V64.8421H223.572V58.9474Z" fill="black" stroke="#BBBBBB"/>
<path d="M231.024 58.9474H223.572V64.8421H231.024V58.9474Z" fill="black" stroke="#BBBBBB"/>
<path d="M238.476 58.9474H231.024V64.8421H238.476V58.9474Z" fill="white" stroke="#BBBBBB"/>
<path d="M245.929 58.9474H238.476V64.8421H245.929V58.9474Z" fill="black" stroke="#BBBBBB"/>
<path d="M253.381 58.9474H245.928V64.8421H253.381V58.9474Z" fill="black" stroke="#BBBBBB"/>
<path d="M260.833 58.9474H253.381V64.8421H260.833V58.9474Z" fill="white" stroke="#BBBBBB"/>
<path d="M275.738 58.9474H268.286V64.8421H275.738V58.9474Z" fill="black" stroke="#BBBBBB"/>
<path d="M283.19 58.9474H275.738V64.8421H283.19V58.9474Z" fill="black" stroke="#BBBBBB"/>
<path d="M22.3572 64.8421H14.9048V70.7368H22.3572V64.8421Z" fill="black" stroke="#BBBBBB"/>
<path d="M29.8093 64.8421H22.3569V70.7368H29.8093V64.8421Z" fill="black" stroke="#BBBBBB"/>
<path d="M44.7143 64.8421H37.262V70.7368H44.7143V64.8421Z" fill="white" stroke="#BBBBBB"/>
<path d="M52.1667 64.8421H44.7144V70.7368H52.1667V64.8421Z" fill="white" stroke="#BBBBBB"/>
<path d="M59.6191 64.8421H52.1667V70.7368H59.6191V64.8421Z" fill="white" stroke="#BBBBBB"/>
<path d="M67.0715 64.8421H59.6191V70.7368H67.0715V64.8421Z" fill="white" stroke="#BBBBBB"/>
<path d="M74.5239 64.8421H67.0715V70.7368H74.5239V64.8421Z" fill="white" stroke="#BBBBBB"/>
<path d="M81.9761 64.8421H74.5237V70.7368H81.9761V64.8421Z" fill="black" stroke="#BBBBBB"/>
<path d="M89.4287 64.8421H81.9763V70.7368H89.4287V64.8421Z" fill="black" stroke="#BBBBBB"/>
<path d="M96.8808 64.8421H89.4285V70.7368H96.8808V64.8421Z" fill="white" stroke="#BBBBBB"/>
<path d="M104.333 64.8421H96.8809V70.7368H104.333V64.8421Z" fill="white" stroke="#BBBBBB"/>
<path d="M111.786 64.8421H104.333V70.7368H111.786V64.8421Z" fill="black" stroke="#BBBBBB"/>
<path d="M119.238 64.8421H111.786V70.7368H119.238V64.8421Z" fill="black" stroke="#BBBBBB"/>
<path d="M126.69 64.8421H119.238V70.7368H126.69V64.8421Z" fill="black" stroke="#BBBBBB"/>
<path d="M134.143 64.8421H126.69V70.7368H134.143V64.8421Z" fill="black" stroke="#BBBBBB"/>
<path d="M141.595 64.8421H134.143V70.7368H141.595V64.8421Z" fill="white" stroke="#BBBBBB"/>
<path d="M149.048 64.8421H141.595V70.7368H149.048V64.8421Z" fill="white" stroke="#BBBBBB"/>
<path d="M156.5 64.8421H149.048V70.7368H156.5V64.8421Z" fill="black" stroke="#BBBBBB"/>
<path d="M163.952 64.8421H156.5V70.7368H163.952V64.8421Z" fill="black" stroke="#BBBBBB"/>
<path d="M171.405 64.8421H163.952V70.7368H171.405V64.8421Z" fill="black" stroke="#BBBBBB"/>
<path d="M178.857 64.8421H171.405V70.7368H178.857V64.8421Z" fill="black" stroke="#BBBBBB"/>
<path d="M186.309 64.8421H178.857V70.7368H186.309V64.8421Z" fill="black" stroke="#BBBBBB"/>
<path d="M193.762 64.8421H186.31V70.7368H193.762V64.8421Z" fill="black" stroke="#BBBBBB"/>
<path d="M201.214 64.8421H193.762V70.7368H201.214V64.8421Z" fill="black" stroke="#BBBBBB"/>
<path d="M208.667 64.8421H201.214V70.7368H208.667V64.8421Z" fill="black" stroke="#BBBBBB"/>
<path d="M216.119 64.8421H208.667V70.7368H216.119V64.8421Z" fill="white" stroke="#BBBBBB"/>
<path d="M223.572 64.8421H216.119V70.7368H223.572V64.8421Z" fill="black" stroke="#BBBBBB"/>
<path d="M231.024 64.8421H223.572V70.7368H231.024V64.8421Z" fill="black" stroke="#BBBBBB"/>
<path d="M238.476 64.8421H231.024V70.7368H238.476V64.8421Z" fill="white" stroke="#BBBBBB"/>
<path d="M245.929 64.8421H238.476V70.7368H245.929V64.8421Z" fill="black" stroke="#BBBBBB"/>
<path d="M253.381 64.8421H245.928V70.7368H253.381V64.8421Z" fill="black" stroke="#BBBBBB"/>
<path d="M260.833 64.8421H253.381V70.7368H260.833V64.8421Z" fill="white" stroke="#BBBBBB"/>
<path d="M268.286 64.8421H260.833V70.7368H268.286V64.8421Z" fill="white" stroke="#BBBBBB"/>
<path d="M275.738 64.8421H268.286V70.7368H275.738V64.8421Z" fill="black" stroke="#BBBBBB"/>
<path d="M283.19 64.8421H275.738V70.7368H283.19V64.8421Z" fill="black" stroke="#BBBBBB"/>
<path d="M22.3572 70.7368H14.9048V76.6316H22.3572V70.7368Z" fill="black" stroke="#BBBBBB"/>
<path d="M29.8093 70.7368H22.3569V76.6316H29.8093V70.7368Z" fill="black" stroke="#BBBBBB"/>
<path d="M52.1667 70.7368H44.7144V76.6316H52.1667V70.7368Z" fill="white" stroke="#BBBBBB"/>
<path d="M59.6191 70.7368H52.1667V76.6316H59.6191V70.7368Z" fill="white" stroke="#BBBBBB"/>
<path d="M67.0715 70.7368H59.6191V76.6316H67.0715V70.7368Z" fill="white" stroke="#BBBBBB"/>
<path d="M74.5239 70.7368H67.0715V76.6316H74.5239V70.7368Z" fill="white" stroke="#BBBBBB"/>
<path d="M81.9761 70.7368H74.5237V76.6316H81.9761V70.7368Z" fill="black" stroke="#BBBBBB"/>
<path d="M89.4287 70.7368H81.9763V76.6316H89.4287V70.7368Z" fill="black" stroke="#BBBBBB"/>
<path d="M96.8808 70.7368H89.4285V76.6316H96.8808V70.7368Z" fill="white" stroke="#BBBBBB"/>
<path d="M104.333 70.7368H96.8809V76.6316H104.333V70.7368Z" fill="white" stroke="#BBBBBB"/>
<path d="M111.786 70.7368H104.333V76.6316H111.786V70.7368Z" fill="white" stroke="#BBBBBB"/>
<path d="M119.238 70.7368H111.786V76.6316H119.238V70.7368Z" fill="black" stroke="#BBBBBB"/>
<path d="M126.69 70.7368H119.238V76.6316H126.69V70.7368Z" fill="black" stroke="#BBBBBB"/>
<path d="M134.143 70.7368H126.69V76.6316H134.143V70.7368Z" fill="white" stroke="#BBBBBB"/>
<path d="M141.595 70.7368H134.143V76.6316H141.595V70.7368Z" fill="white" stroke="#BBBBBB"/>
<path d="M149.048 70.7368H141.595V76.6316H149.048V70.7368Z" fill="white" stroke="#BBBBBB"/>
<path d="M156.5 70.7368H149.048V76.6316H156.5V70.7368Z" fill="black" stroke="#BBBBBB"/>
<path d="M163.952 70.7368H156.5V76.6316H163.952V70.7368Z" fill="black" stroke="#BBBBBB"/>
<path d="M171.405 70.7368H163.952V76.6316H171.405V70.7368Z" fill="black" stroke="#BBBBBB"/>
<path d="M178.857 70.7368H171.405V76.6316H178.857V70.7368Z" fill="black" stroke="#BBBBBB"/>
<path d="M186.309 70.7368H178.857V76.6316H186.309V70.7368Z" fill="black" stroke="#BBBBBB"/>
<path d="M193.762 70.7368H186.31V76.6316H193.762V70.7368Z" fill="black" stroke="#BBBBBB"/>
<path d="M201.214 70.7368H193.762V76.6316H201.214V70.7368Z" fill="black" stroke="#BBBBBB"/>
<path d="M208.667 70.7368H201.214V76.6316H208.667V70.7368Z" fill="white" stroke="#BBBBBB"/>
<path d="M216.119 70.7368H208.667V76.6316H216.119V70.7368Z" fill="white" stroke="#BBBBBB"/>
<path d="M223.572 70.7368H216.119V76.6316H223.572V70.7368Z" fill="black" stroke="#BBBBBB"/>
<path d="M231.024 70.7368H223.572V76.6316H231.024V70.7368Z" fill="black" stroke="#BBBBBB"/>
<path d="M238.476 70.7368H231.024V76.6316H238.476V70.7368Z" fill="white" stroke="#BBBBBB"/>
<path d="M245.929 70.7368H238.476V76.6316H245.929V70.7368Z" fill="black" stroke="#BBBBBB"/>
<path d="M253.381 70.7368H245.928V76.6316H253.381V70.7368Z" fill="black" stroke="#BBBBBB"/>
<path d="M260.833 70.7368H253.381V76.6316H260.833V70.7368Z" fill="white" stroke="#BBBBBB"/>
<path d="M268.286 70.7368H260.833V76.6316H268.286V70.7368Z" fill="white" stroke="#BBBBBB"/>
<path d="M275.738 70.7368H268.286V76.6316H275.738V70.7368Z" fill="black" stroke="#BBBBBB"/>
<path d="M283.19 70.7368H275.738V76.6316H283.19V70.7368Z" fill="black" stroke="#BBBBBB"/>
<path d="M290.643 70.7368H283.19V76.6316H290.643V70.7368Z" fill="white" stroke="#BBBBBB"/>
<path d="M22.3572 76.6316H14.9048V82.5263H22.3572V76.6316Z" fill="black" stroke="#BBBBBB"/>
<path d="M29.8093 76.6316H22.3569V82.5263H29.8093V76.6316Z" fill="black" stroke="#BBBBBB"/>
<path d="M67.0715 76.6316H59.6191V82.5263H67.0715V76.6316Z" fill="white" stroke="#BBBBBB"/>
<path d="M74.5239 76.6316H67.0715V82.5263H74.5239V76.6316Z" fill="white" stroke="#BBBBBB"/>
<path d="M81.9761 76.6316H74.5237V82.5263H81.9761V76.6316Z" fill="black" stroke="#BBBBBB"/>
<path d="M89.4287 76.6316H81.9763V82.5263H89.4287V76.6316Z" fill="black" stroke="#BBBBBB"/>
<path d="M96.8808 76.6316H89.4285V82.5263H96.8808V76.6316Z" fill="white" stroke="#BBBBBB"/>
<path d="M104.333 76.6316H96.8809V82.5263H104.333V76.6316Z" fill="white" stroke="#BBBBBB"/>
<path d="M111.786 76.6316H104.333V82.5263H111.786V76.6316Z" fill="white" stroke="#BBBBBB"/>
<path d="M119.238 76.6316H111.786V82.5263H119.238V76.6316Z" fill="black" stroke="#BBBBBB"/>
<path d="M126.69 76.6316H119.238V82.5263H126.69V76.6316Z" fill="black" stroke="#BBBBBB"/>
<path d="M134.143 76.6316H126.69V82.5263H134.143V76.6316Z" fill="white" stroke="#BBBBBB"/>
<path d="M141.595 76.6316H134.143V82.5263H141.595V76.6316Z" fill="white" stroke="#BBBBBB"/>
<path d="M149.048 76.6316H141.595V82.5263H149.048V76.6316Z" fill="white" stroke="#BBBBBB"/>
<path d="M156.5 76.6316H149.048V82.5263H156.5V76.6316Z" fill="black" stroke="#BBBBBB"/>
<path d="M163.952 76.6316H156.5V82.5263H163.952V76.6316Z" fill="black" stroke="#BBBBBB"/>
<path d="M171.405 76.6316H163.952V82.5263H171.405V76.6316Z" fill="white" stroke="#BBBBBB"/>
<path d="M178.857 76.6316H171.405V82.5263H178.857V76.6316Z" fill="white" stroke="#BBBBBB"/>
<path d="M186.309 76.6316H178.857V82.5263H186.309V76.6316Z" fill="white" stroke="#BBBBBB"/>
<path d="M193.762 76.6316H186.31V82.5263H193.762V76.6316Z" fill="white" stroke="#BBBBBB"/>
<path d="M201.214 76.6316H193.762V82.5263H201.214V76.6316Z" fill="white" stroke="#BBBBBB"/>
<path d="M208.667 76.6316H201.214V82.5263H208.667V76.6316Z" fill="white" stroke="#BBBBBB"/>
<path d="M216.119 76.6316H208.667V82.5263H216.119V76.6316Z" fill="white" stroke="#BBBBBB"/>
<path d="M223.572 76.6316H216.119V82.5263H223.572V76.6316Z" fill="black" stroke="#BBBBBB"/>
<path d="M231.024 76.6316H223.572V82.5263H231.024V76.6316Z" fill="black" stroke="#BBBBBB"/>
<path d="M238.476 76.6316H231.024V82.5263H238.476V76.6316Z" fill="white" stroke="#BBBBBB"/>
<path d="M245.929 76.6316H238.476V82.5263H245.929V76.6316Z" fill="black" stroke="#BBBBBB"/>
<path d="M253.381 76.6316H245.928V82.5263H253.381V76.6316Z" fill="black" stroke="#BBBBBB"/>
<path d="M260.833 76.6316H253.381V82.5263H260.833V76.6316Z" fill="white" stroke="#BBBBBB"/>
<path d="M268.286 76.6316H260.833V82.5263H268.286V76.6316Z" fill="white" stroke="#BBBBBB"/>
<path d="M275.738 76.6316H268.286V82.5263H275.738V76.6316Z" fill="black" stroke="#BBBBBB"/>
<path d="M283.19 76.6316H275.738V82.5263H283.19V76.6316Z" fill="black" stroke="#BBBBBB"/>
<path d="M290.643 76.6316H283.19V82.5263H290.643V76.6316Z" fill="white" stroke="#BBBBBB"/>
<path d="M298.095 76.6316H290.643V82.5263H298.095V76.6316Z" fill="white" stroke="#BBBBBB"/>
<path d="M22.3572 82.5263H14.9048V88.421H22.3572V82.5263Z" fill="black" stroke="#BBBBBB"/>
<path d="M29.8093 82.5263H22.3569V88.421H29.8093V82.5263Z" fill="black" stroke="#BBBBBB"/>
<path d="M81.9761 82.5263H74.5237V88.421H81.9761V82.5263Z" fill="black" stroke="#BBBBBB"/>
<path d="M89.4287 82.5263H81.9763V88.421H89.4287V82.5263Z" fill="black" stroke="#BBBBBB"/>
<path d="M96.8808 82.5263H89.4285V88.421H96.8808V82.5263Z" fill="white" stroke="#BBBBBB"/>
<path d="M104.333 82.5263H96.8809V88.421H104.333V82.5263Z" fill="white" stroke="#BBBBBB"/>
<path d="M111.786 82.5263H104.333V88.421H111.786V82.5263Z" fill="black" stroke="#BBBBBB"/>
<path d="M119.238 82.5263H111.786V88.421H119.238V82.5263Z" fill="black" stroke="#BBBBBB"/>
<path d="M126.69 82.5263H119.238V88.421H126.69V82.5263Z" fill="black" stroke="#BBBBBB"/>
<path d="M134.143 82.5263H126.69V88.421H134.143V82.5263Z" fill="black" stroke="#BBBBBB"/>
<path d="M141.595 82.5263H134.143V88.421H141.595V82.5263Z" fill="white" stroke="#BBBBBB"/>
<path d="M149.048 82.5263H141.595V88.421H149.048V82.5263Z" fill="white" stroke="#BBBBBB"/>
<path d="M156.5 82.5263H149.048V88.421H156.5V82.5263Z" fill="black" stroke="#BBBBBB"/>
<path d="M163.952 82.5263H156.5V88.421H163.952V82.5263Z" fill="black" stroke="#BBBBBB"/>
<path d="M171.405 82.5263H163.952V88.421H171.405V82.5263Z" fill="white" stroke="#BBBBBB"/>
<path d="M178.857 82.5263H171.405V88.421H178.857V82.5263Z" fill="white" stroke="#BBBBBB"/>
<path d="M186.309 82.5263H178.857V88.421H186.309V82.5263Z" fill="white" stroke="#BBBBBB"/>
<path d="M193.762 82.5263H186.31V88.421H193.762V82.5263Z" fill="white" stroke="#BBBBBB"/>
<path d="M201.214 82.5263H193.762V88.421H201.214V82.5263Z" fill="white" stroke="#BBBBBB"/>
<path d="M208.667 82.5263H201.214V88.421H208.667V82.5263Z" fill="white" stroke="#BBBBBB"/>
<path d="M216.119 82.5263H208.667V88.421H216.119V82.5263Z" fill="white" stroke="#BBBBBB"/>
<path d="M223.572 82.5263H216.119V88.421H223.572V82.5263Z" fill="black" stroke="#BBBBBB"/>
<path d="M231.024 82.5263H223.572V88.421H231.024V82.5263Z" fill="black" stroke="#BBBBBB"/>
<path d="M238.476 82.5263H231.024V88.421H238.476V82.5263Z" fill="white" stroke="#BBBBBB"/>
<path d="M245.929 82.5263H238.476V88.421H245.929V82.5263Z" fill="black" stroke="#BBBBBB"/>
<path d="M253.381 82.5263H245.928V88.421H253.381V82.5263Z" fill="black" stroke="#BBBBBB"/>
<path d="M260.833 82.5263H253.381V88.421H260.833V82.5263Z" fill="white" stroke="#BBBBBB"/>
<path d="M268.286 82.5263H260.833V88.421H268.286V82.5263Z" fill="white" stroke="#BBBBBB"/>
<path d="M275.738 82.5263H268.286V88.421H275.738V82.5263Z" fill="black" stroke="#BBBBBB"/>
<path d="M283.19 82.5263H275.738V88.421H283.19V82.5263Z" fill="black" stroke="#BBBBBB"/>
<path d="M290.643 82.5263H283.19V88.421H290.643V82.5263Z" fill="white" stroke="#BBBBBB"/>
<path d="M298.095 82.5263H290.643V88.421H298.095V82.5263Z" fill="white" stroke="#BBBBBB"/>
<path d="M305.548 82.5263H298.095V88.421H305.548V82.5263Z" fill="white" stroke="#BBBBBB"/>
<path d="M22.3572 88.4211H14.9048V94.3158H22.3572V88.4211Z" fill="black" stroke="#BBBBBB"/>
<path d="M29.8093 88.4211H22.3569V94.3158H29.8093V88.4211Z" fill="black" stroke="#BBBBBB"/>
<path d="M81.9761 88.4211H74.5237V94.3158H81.9761V88.4211Z" fill="black" stroke="#BBBBBB"/>
<path d="M89.4287 88.4211H81.9763V94.3158H89.4287V88.4211Z" fill="black" stroke="#BBBBBB"/>
<path d="M104.333 88.4211H96.8809V94.3158H104.333V88.4211Z" fill="black" stroke="#BBBBBB"/>
<path d="M111.786 88.4211H104.333V94.3158H111.786V88.4211Z" fill="black" stroke="#BBBBBB"/>
<path d="M119.238 88.4211H111.786V94.3158H119.238V88.4211Z" fill="white" stroke="#BBBBBB"/>
<path d="M126.69 88.4211H119.238V94.3158H126.69V88.4211Z" fill="white" stroke="#BBBBBB"/>
<path d="M134.143 88.4211H126.69V94.3158H134.143V88.4211Z" fill="black" stroke="#BBBBBB"/>
<path d="M141.595 88.4211H134.143V94.3158H141.595V88.4211Z" fill="black" stroke="#BBBBBB"/>
<path d="M149.048 88.4211H141.595V94.3158H149.048V88.4211Z" fill="white" stroke="#BBBBBB"/>
<path d="M156.5 88.4211H149.048V94.3158H156.5V88.4211Z" fill="white" stroke="#BBBBBB"/>
<path d="M163.952 88.4211H156.5V94.3158H163.952V88.4211Z" fill="black" stroke="#BBBBBB"/>
<path d="M171.405 88.4211H163.952V94.3158H171.405V88.4211Z" fill="black" stroke="#BBBBBB"/>
<path d="M178.857 88.4211H171.405V94.3158H178.857V88.4211Z" fill="black" stroke="#BBBBBB"/>
<path d="M186.309 88.4211H178.857V94.3158H186.309V88.4211Z" fill="black" stroke="#BBBBBB"/>
<path d="M193.762 88.4211H186.31V94.3158H193.762V88.4211Z" fill="black" stroke="#BBBBBB"/>
<path d="M201.214 88.4211H193.762V94.3158H201.214V88.4211Z" fill="black" stroke="#BBBBBB"/>
<path d="M208.667 88.4211H201.214V94.3158H208.667V88.4211Z" fill="black" stroke="#BBBBBB"/>
<path d="M216.119 88.4211H208.667V94.3158H216.119V88.4211Z" fill="white" stroke="#BBBBBB"/>
<path d="M223.572 88.4211H216.119V94.3158H223.572V88.4211Z" fill="black" stroke="#BBBBBB"/>
<path d="M231.024 88.4211H223.572V94.3158H231.024V88.4211Z" fill="black" stroke="#BBBBBB"/>
<path d="M238.476 88.4211H231.024V94.3158H238.476V88.4211Z" fill="white" stroke="#BBBBBB"/>
<path d="M245.929 88.4211H238.476V94.3158H245.929V88.4211Z" fill="black" stroke="#BBBBBB"/>
<path d="M253.381 88.4211H245.928V94.3158H253.381V88.4211Z" fill="black" stroke="#BBBBBB"/>
<path d="M260.833 88.4211H253.381V94.3158H260.833V88.4211Z" fill="white" stroke="#BBBBBB"/>
<path d="M268.286 88.4211H260.833V94.3158H268.286V88.4211Z" fill="white" stroke="#BBBBBB"/>
<path d="M275.738 88.4211H268.286V94.3158H275.738V88.4211Z" fill="black" stroke="#BBBBBB"/>
<path d="M283.19 88.4211H275.738V94.3158H283.19V88.4211Z" fill="black" stroke="#BBBBBB"/>
<path d="M290.643 88.4211H283.19V94.3158H290.643V88.4211Z" fill="black" stroke="#BBBBBB"/>
<path d="M298.095 88.4211H290.643V94.3158H298.095V88.4211Z" fill="black" stroke="#BBBBBB"/>
<path d="M305.548 88.4211H298.095V94.3158H305.548V88.4211Z" fill="white" stroke="#BBBBBB"/>
<path d="M22.3572 94.3158H14.9048V100.211H22.3572V94.3158Z" fill="black" stroke="#BBBBBB"/>
<path d="M29.8093 94.3158H22.3569V100.211H29.8093V94.3158Z" fill="black" stroke="#BBBBBB"/>
<path d="M81.9761 94.3158H74.5237V100.211H81.9761V94.3158Z" fill="black" stroke="#BBBBBB"/>
<path d="M89.4287 94.3158H81.9763V100.211H89.4287V94.3158Z" fill="black" stroke="#BBBBBB"/>
<path d="M104.333 94.3158H96.8809V100.211H104.333V94.3158Z" fill="black" stroke="#BBBBBB"/>
<path d="M111.786 94.3158H104.333V100.211H111.786V94.3158Z" fill="black" stroke="#BBBBBB"/>
<path d="M134.143 94.3158H126.69V100.211H134.143V94.3158Z" fill="black" stroke="#BBBBBB"/>
<path d="M141.595 94.3158H134.143V100.211H141.595V94.3158Z" fill="black" stroke="#BBBBBB"/>
<path d="M149.048 94.3158H141.595V100.211H149.048V94.3158Z" fill="white" stroke="#BBBBBB"/>
<path d="M156.5 94.3158H149.048V100.211H156.5V94.3158Z" fill="white" stroke="#BBBBBB"/>
<path d="M163.952 94.3158H156.5V100.211H163.952V94.3158Z" fill="white" stroke="#BBBBBB"/>
<path d="M171.405 94.3158H163.952V100.211H171.405V94.3158Z" fill="black" stroke="#BBBBBB"/>
<path d="M178.857 94.3158H171.405V100.211H178.857V94.3158Z" fill="black" stroke="#BBBBBB"/>
<path d="M186.309 94.3158H178.857V100.211H186.309V94.3158Z" fill="black" stroke="#BBBBBB"/>
<path d="M193.762 94.3158H186.31V100.211H193.762V94.3158Z" fill="black" stroke="#BBBBBB"/>
<path d="M201.214 94.3158H193.762V100.211H201.214V94.3158Z" fill="black" stroke="#BBBBBB"/>
<path d="M208.667 94.3158H201.214V100.211H208.667V94.3158Z" fill="white" stroke="#BBBBBB"/>
<path d="M216.119 94.3158H208.667V100.211H216.119V94.3158Z" fill="white" stroke="#BBBBBB"/>
<path d="M223.572 94.3158H216.119V100.211H223.572V94.3158Z" fill="black" stroke="#BBBBBB"/>
<path d="M231.024 94.3158H223.572V100.211H231.024V94.3158Z" fill="black" stroke="#BBBBBB"/>
<path d="M238.476 94.3158H231.024V100.211H238.476V94.3158Z" fill="white" stroke="#BBBBBB"/>
<path d="M245.929 94.3158H238.476V100.211H245.929V94.3158Z" fill="black" stroke="#BBBBBB"/>
<path d="M253.381 94.3158H245.928V100.211H253.381V94.3158Z" fill="black" stroke="#BBBBBB"/>
<path d="M260.833 94.3158H253.381V100.211H260.833V94.3158Z" fill="white" stroke="#BBBBBB"/>
<path d="M268.286 94.3158H260.833V100.211H268.286V94.3158Z" fill="white" stroke="#BBBBBB"/>
<path d="M275.738 94.3158H268.286V100.211H275.738V94.3158Z" fill="white" stroke="#BBBBBB"/>
<path d="M283.19 94.3158H275.738V100.211H283.19V94.3158Z" fill="black" stroke="#BBBBBB"/>
<path d="M290.643 94.3158H283.19V100.211H290.643V94.3158Z" fill="black" stroke="#BBBBBB"/>
<path d="M298.095 94.3158H290.643V100.211H298.095V94.3158Z" fill="black" stroke="#BBBBBB"/>
<path d="M305.548 94.3158H298.095V100.211H305.548V94.3158Z" fill="white" stroke="#BBBBBB"/>
<path d="M186.309 100.211H178.857V106.105H186.309V100.211Z" fill="white" stroke="#BBBBBB"/>
<path d="M193.762 100.211H186.31V106.105H193.762V100.211Z" fill="white" stroke="#BBBBBB"/>
<path d="M201.214 100.211H193.762V106.105H201.214V100.211Z" fill="white" stroke="#BBBBBB"/>
<path d="M208.667 100.211H201.214V106.105H208.667V100.211Z" fill="white" stroke="#BBBBBB"/>
<path d="M216.119 100.211H208.667V106.105H216.119V100.211Z" fill="white" stroke="#BBBBBB"/>
<path d="M223.572 100.211H216.119V106.105H223.572V100.211Z" fill="white" stroke="#BBBBBB"/>
<path d="M231.024 100.211H223.572V106.105H231.024V100.211Z" fill="white" stroke="#BBBBBB"/>
<path d="M238.476 100.211H231.024V106.105H238.476V100.211Z" fill="white" stroke="#BBBBBB"/>
<path d="M245.929 100.211H238.476V106.105H245.929V100.211Z" fill="white" stroke="#BBBBBB"/>
<path d="M253.381 100.211H245.928V106.105H253.381V100.211Z" fill="white" stroke="#BBBBBB"/>
<path d="M260.833 100.211H253.381V106.105H260.833V100.211Z" fill="white" stroke="#BBBBBB"/>
<path d="M268.286 100.211H260.833V106.105H268.286V100.211Z" fill="white" stroke="#BBBBBB"/>
<path d="M275.738 100.211H268.286V106.105H275.738V100.211Z" fill="white" stroke="#BBBBBB"/>
<path d="M283.19 100.211H275.738V106.105H283.19V100.211Z" fill="white" stroke="#BBBBBB"/>
<path d="M290.643 100.211H283.19V106.105H290.643V100.211Z" fill="white" stroke="#BBBBBB"/>
<path d="M298.095 100.211H290.643V106.105H298.095V100.211Z" fill="white" stroke="#BBBBBB"/>
<path d="M305.548 100.211H298.095V106.105H305.548V100.211Z" fill="white" stroke="#BBBBBB"/>
<path d="M186.309 106.105H178.857V112H186.309V106.105Z" fill="white" stroke="#BBBBBB"/>
<path d="M193.762 106.105H186.31V112H193.762V106.105Z" fill="white" stroke="#BBBBBB"/>
<path d="M201.214 106.105H193.762V112H201.214V106.105Z" fill="white" stroke="#BBBBBB"/>
<path d="M208.667 106.105H201.214V112H208.667V106.105Z" fill="white" stroke="#BBBBBB"/>
<path d="M216.119 106.105H208.667V112H216.119V106.105Z" fill="white" stroke="#BBBBBB"/>
<path d="M223.572 106.105H216.119V112H223.572V106.105Z" fill="white" stroke="#BBBBBB"/>
<path d="M231.024 106.105H223.572V112H231.024V106.105Z" fill="white" stroke="#BBBBBB"/>
<path d="M238.476 106.105H231.024V112H238.476V106.105Z" fill="white" stroke="#BBBBBB"/>
<path d="M245.929 106.105H238.476V112H245.929V106.105Z" fill="white" stroke="#BBBBBB"/>
<path d="M253.381 106.105H245.928V112H253.381V106.105Z" fill="white" stroke="#BBBBBB"/>
<path d="M260.833 106.105H253.381V112H260.833V106.105Z" fill="white" stroke="#BBBBBB"/>
<path d="M268.286 106.105H260.833V112H268.286V106.105Z" fill="white" stroke="#BBBBBB"/>
<path d="M275.738 106.105H268.286V112H275.738V106.105Z" fill="white" stroke="#BBBBBB"/>
<path d="M283.19 106.105H275.738V112H283.19V106.105Z" fill="white" stroke="#BBBBBB"/>
<path d="M290.643 106.105H283.19V112H290.643V106.105Z" fill="white" stroke="#BBBBBB"/>
<path d="M298.095 106.105H290.643V112H298.095V106.105Z" fill="white" stroke="#BBBBBB"/>
<path d="M305.548 106.105H298.095V112H305.548V106.105Z" fill="white" stroke="#BBBBBB"/>
<path d="M171.405 100.211H163.952V106.105H171.405V100.211Z" fill="white" stroke="#BBBBBB"/>
<path d="M178.857 100.211H171.405V106.105H178.857V100.211Z" fill="white" stroke="#BBBBBB"/>
<path d="M171.405 106.105H163.952V112H171.405V106.105Z" fill="white" stroke="#BBBBBB"/>
<path d="M178.857 106.105H171.405V112H178.857V106.105Z" fill="white" stroke="#BBBBBB"/>
<path d="M7.45238 29.4737H0V35.3684H7.45238V29.4737Z" fill="white" stroke="#BBBBBB"/>
<path d="M14.9048 29.4737H7.45239V35.3684H14.9048V29.4737Z" fill="white" stroke="#BBBBBB"/>
<path d="M7.45238 35.3684H0V41.2631H7.45238V35.3684Z" fill="white" stroke="#BBBBBB"/>
<path d="M14.9048 35.3684H7.45239V41.2631H14.9048V35.3684Z" fill="white" stroke="#BBBBBB"/>
<path d="M14.9048 41.2632H7.45239V47.1579H14.9048V41.2632Z" fill="white" stroke="#BBBBBB"/>
<path d="M141.595 100.211H134.142V106.105H141.595V100.211Z" fill="white" stroke="#BBBBBB"/>
<path d="M149.047 100.211H141.595V106.105H149.047V100.211Z" fill="white" stroke="#BBBBBB"/>
<path d="M156.5 100.211H149.047V106.105H156.5V100.211Z" fill="white" stroke="#BBBBBB"/>
<path d="M163.952 100.211H156.5V106.105H163.952V100.211Z" fill="white" stroke="#BBBBBB"/>
<path d="M149.047 106.105H141.595V112H149.047V106.105Z" fill="white" stroke="#BBBBBB"/>
<path d="M156.5 106.105H149.047V112H156.5V106.105Z" fill="white" stroke="#BBBBBB"/>
<path d="M163.952 106.105H156.5V112H163.952V106.105Z" fill="white" stroke="#BBBBBB"/>
<path d="M119.238 94.3158H111.786V100.211H119.238V94.3158Z" fill="white" stroke="#BBBBBB"/>
<path d="M126.69 94.3158H119.238V100.211H126.69V94.3158Z" fill="white" stroke="#BBBBBB"/>
<path d="M313 82.5263H305.548V88.421H313V82.5263Z" fill="white" stroke="#BBBBBB"/>
<path d="M313 88.4211H305.548V94.3158H313V88.4211Z" fill="white" stroke="#BBBBBB"/>
<path d="M313 94.3158H305.548V100.211H313V94.3158Z" fill="white" stroke="#BBBBBB"/>
<path d="M313 100.211H305.548V106.105H313V100.211Z" fill="white" stroke="#BBBBBB"/>
<path d="M313 106.105H305.548V112H313V106.105Z" fill="white" stroke="#BBBBBB"/>
<path d="M335.357 88.4211H327.905V94.3158H335.357V88.4211Z" fill="white" stroke="#BBBBBB"/>
<path d="M335.357 94.3158H327.905V100.211H335.357V94.3158Z" fill="white" stroke="#BBBBBB"/>
<path d="M342.81 94.3158H335.357V100.211H342.81V94.3158Z" fill="white" stroke="#BBBBBB"/>
<path d="M335.357 100.211H327.905V106.105H335.357V100.211Z" fill="white" stroke="#BBBBBB"/>
<path d="M335.357 106.105H327.905V112H335.357V106.105Z" fill="white" stroke="#BBBBBB"/>
<path d="M342.81 106.105H335.357V112H342.81V106.105Z" fill="white" stroke="#BBBBBB"/>
<path d="M342.81 94.3158H335.357V100.211H342.81V94.3158Z" fill="white" stroke="#BBBBBB"/>
<path d="M350.262 94.3158H342.81V100.211H350.262V94.3158Z" fill="white" stroke="#BBBBBB"/>
<path d="M342.81 100.211H335.357V106.105H342.81V100.211Z" fill="white" stroke="#BBBBBB"/>
<path d="M350.262 100.211H342.81V106.105H350.262V100.211Z" fill="white" stroke="#BBBBBB"/>
<path d="M342.81 106.105H335.357V112H342.81V106.105Z" fill="white" stroke="#BBBBBB"/>
<path d="M372.619 106.105H365.167V112H372.619V106.105Z" fill="white" stroke="#BBBBBB"/>
<path d="M350.262 106.105H342.81V112H350.262V106.105Z" fill="white" stroke="#BBBBBB"/>
<path d="M268.286 58.9474H260.833V64.8421H268.286V58.9474Z" fill="white" stroke="#BBBBBB"/>
<path d="M305.548 82.5263H298.095V88.421H305.548V82.5263Z" fill="white" stroke="#BBBBBB"/>
<path d="M313 82.5263H305.548V88.421H313V82.5263Z" fill="white" stroke="#BBBBBB"/>
<path d="M305.548 76.6315H298.095V82.5263H305.548V76.6315Z" fill="white" stroke="#BBBBBB"/>
<path d="M305.548 76.6315H298.095V82.5263H305.548V76.6315Z" fill="white" stroke="#BBBBBB"/>
<path d="M96.8808 88.4211H89.4285V94.3158H96.8808V88.4211Z" fill="white" stroke="#BBBBBB"/>
<path d="M134.143 100.211H126.69V106.105H134.143V100.211Z" fill="white" stroke="#BBBBBB"/>
<path d="M67.0715 -7.62939e-06H59.6191V5.89473H67.0715V-7.62939e-06Z" fill="white" stroke="#BBBBBB"/>
<path d="M74.5239 -7.62939e-06H67.0715V5.89473H74.5239V-7.62939e-06Z" fill="white" stroke="#BBBBBB"/>
<path d="M320.452 82.5263H313V88.421H320.452V82.5263Z" fill="white" stroke="#BBBBBB"/>
<path d="M320.452 88.421H313V94.3158H320.452V88.421Z" fill="white" stroke="#BBBBBB"/>
<path d="M327.905 88.421H320.452V94.3158H327.905V88.421Z" fill="white" stroke="#BBBBBB"/>
<path d="M320.452 94.3158H313V100.211H320.452V94.3158Z" fill="white" stroke="#BBBBBB"/>
<path d="M327.905 94.3158H320.452V100.211H327.905V94.3158Z" fill="white" stroke="#BBBBBB"/>
<path d="M320.452 100.211H313V106.105H320.452V100.211Z" fill="white" stroke="#BBBBBB"/>
<path d="M327.905 100.211H320.452V106.105H327.905V100.211Z" fill="white" stroke="#BBBBBB"/>
<path d="M320.452 106.105H313V112H320.452V106.105Z" fill="white" stroke="#BBBBBB"/>
<path d="M327.905 106.105H320.452V112H327.905V106.105Z" fill="white" stroke="#BBBBBB"/>
<path d="M335.357 88.4211H327.905V94.3158H335.357V88.4211Z" fill="white" stroke="#BBBBBB"/>
<path d="M335.357 94.3158H327.905V100.211H335.357V94.3158Z" fill="white" stroke="#BBBBBB"/>
<path d="M342.81 94.3158H335.357V100.211H342.81V94.3158Z" fill="white" stroke="#BBBBBB"/>
<path d="M335.357 100.211H327.905V106.105H335.357V100.211Z" fill="white" stroke="#BBBBBB"/>
<path d="M342.81 100.211H335.357V106.105H342.81V100.211Z" fill="white" stroke="#BBBBBB"/>
<path d="M335.357 106.105H327.905V112H335.357V106.105Z" fill="white" stroke="#BBBBBB"/>
<path d="M342.81 106.105H335.357V112H342.81V106.105Z" fill="white" stroke="#BBBBBB"/>
<path d="M350.262 94.3158H342.81V100.211H350.262V94.3158Z" fill="white" stroke="#BBBBBB"/>
<path d="M350.262 100.211H342.81V106.105H350.262V100.211Z" fill="white" stroke="#BBBBBB"/>
<path d="M357.714 100.211H350.262V106.105H357.714V100.211Z" fill="white" stroke="#BBBBBB"/>
<path d="M365.167 100.211H357.714V106.105H365.167V100.211Z" fill="white" stroke="#BBBBBB"/>
<path d="M350.262 106.105H342.81V112H350.262V106.105Z" fill="white" stroke="#BBBBBB"/>
<path d="M357.714 106.105H350.262V112H357.714V106.105Z" fill="white" stroke="#BBBBBB"/>
<path d="M365.167 106.105H357.714V112H365.167V106.105Z" fill="white" stroke="#BBBBBB"/>
<path d="M372.619 106.105H365.167V112H372.619V106.105Z" fill="white" stroke="#BBBBBB"/>
<path d="M320.452 82.5263H313V88.421H320.452V82.5263Z" fill="white" stroke="#BBBBBB"/>
</g>
<defs>
<clipPath id="clip0_59_1288">
<rect width="380.072" height="112" fill="white"/>
</clipPath>
</defs>
</svg>
