<svg width="100" height="100" viewBox="0 0 100 100" fill="none" xmlns="http://www.w3.org/2000/svg">
<path d="M24.9998 91.6667C22.7897 91.6667 20.6701 90.7887 19.1073 89.2259C17.5445 87.6631 16.6665 85.5435 16.6665 83.3333V16.6667C16.6665 14.4565 17.5445 12.3369 19.1073 10.7741C20.6701 9.2113 22.7897 8.33333 24.9998 8.33333H58.3332C59.6521 8.33119 60.9585 8.59 62.177 9.09486C63.3956 9.59972 64.5022 10.3407 65.4332 11.275L80.3832 26.225C81.32 27.1563 82.0631 28.2639 82.5694 29.484C83.0757 30.7041 83.3353 32.0124 83.3332 33.3333V83.3333C83.3332 85.5435 82.4552 87.6631 80.8924 89.2259C79.3296 90.7887 77.21 91.6667 74.9998 91.6667H24.9998Z" stroke="black" stroke-width="2" stroke-linecap="round" stroke-linejoin="round"/>
<path d="M58.3335 8.33331V29.1666C58.3335 30.2717 58.7725 31.3315 59.5539 32.1129C60.3353 32.8943 61.3951 33.3333 62.5002 33.3333H83.3335" stroke="black" stroke-width="2" stroke-linecap="round" stroke-linejoin="round"/>
<path d="M41.6668 58.3334C46.2692 58.3334 50.0002 54.6024 50.0002 50C50.0002 45.3976 46.2692 41.6667 41.6668 41.6667C37.0645 41.6667 33.3335 45.3976 33.3335 50C33.3335 54.6024 37.0645 58.3334 41.6668 58.3334Z" stroke="black" stroke-width="2" stroke-linecap="round" stroke-linejoin="round"/>
<path d="M83.3333 70.8333L77.9333 65.4333C76.0502 63.5505 73.4963 62.4927 70.8333 62.4927C68.1704 62.4927 65.6165 63.5505 63.7333 65.4333L37.5 91.6667" stroke="black" stroke-width="2" stroke-linecap="round" stroke-linejoin="round"/>
</svg>
