<svg viewBox="0 0 70 70" fill="none" xmlns="http://www.w3.org/2000/svg">
<path d="M52.5 58.3333C52.5 53.692 50.6563 49.2408 47.3744 45.959C44.0925 42.6771 39.6413 40.8333 35 40.8333C30.3587 40.8333 25.9075 42.6771 22.6256 45.959C19.3437 49.2408 17.5 53.692 17.5 58.3333" stroke="black" stroke-width="2" stroke-linecap="round" stroke-linejoin="round"/>
<path d="M35.0002 40.8333C41.4435 40.8333 46.6668 35.61 46.6668 29.1667C46.6668 22.7233 41.4435 17.5 35.0002 17.5C28.5568 17.5 23.3335 22.7233 23.3335 29.1667C23.3335 35.61 28.5568 40.8333 35.0002 40.8333Z" stroke="black" stroke-width="2" stroke-linecap="round" stroke-linejoin="round"/>
<path d="M35.0002 64.1667C51.1085 64.1667 64.1668 51.1083 64.1668 35C64.1668 18.8917 51.1085 5.83334 35.0002 5.83334C18.8919 5.83334 5.8335 18.8917 5.8335 35C5.8335 51.1083 18.8919 64.1667 35.0002 64.1667Z" stroke="black" stroke-width="2" stroke-linecap="round" stroke-linejoin="round"/>
</svg>
