<svg width="46" height="46" viewBox="0 0 46 46" fill="none" xmlns="http://www.w3.org/2000/svg">
<g filter="url(#filter0_d_41_129922)">
<path d="M22.875 0.25C26.5587 0.25 30.1598 1.34213 33.2227 3.38867C36.2854 5.43512 38.6723 8.344 40.082 11.7471C41.4917 15.1503 41.8612 18.8959 41.1426 22.5088C40.4239 26.1216 38.6496 29.4402 36.0449 32.0449C33.4402 34.6496 30.1216 36.4239 26.5088 37.1426C22.8959 37.8612 19.1503 37.4917 15.7471 36.082C12.344 34.6723 9.43512 32.2854 7.38867 29.2227C5.34213 26.1598 4.25 22.5587 4.25 18.875C4.25 18.3227 4.69772 17.875 5.25 17.875C5.80228 17.875 6.25 18.3227 6.25 18.875C6.25 22.1631 7.225 25.3774 9.05176 28.1113C10.8785 30.8452 13.475 32.9761 16.5127 34.2344C19.5504 35.4926 22.8933 35.8221 26.1182 35.1807C29.3431 34.5392 32.3058 32.9559 34.6309 30.6309C36.9559 28.3058 38.5392 25.3431 39.1807 22.1182C39.8221 18.8933 39.4926 15.5504 38.2344 12.5127C36.9761 9.47496 34.8452 6.87849 32.1113 5.05176C29.3776 3.22518 26.1637 2.25019 22.876 2.25C18.2078 2.26828 13.7275 4.0903 10.3711 7.33496L7.66406 10.042H15.042C15.5941 10.0422 16.042 10.4898 16.042 11.042C16.0418 11.594 15.594 12.0418 15.042 12.042H5.25C5.19333 12.042 5.13808 12.0354 5.08398 12.0264C5.07358 12.0246 5.06309 12.0236 5.05273 12.0215C5.04287 12.0195 5.0332 12.0169 5.02344 12.0146C5.00054 12.0093 4.97763 12.004 4.95508 11.9971C4.90716 11.9823 4.86095 11.9639 4.81641 11.9424C4.77477 11.9223 4.73441 11.8992 4.69531 11.873C4.58561 11.7996 4.49121 11.7055 4.41797 11.5957C4.3383 11.4763 4.2874 11.3437 4.26465 11.207C4.2557 11.1533 4.25002 11.0983 4.25 11.042V1.25C4.25 0.697715 4.69772 0.25 5.25 0.25C5.80228 0.25 6.25 0.697715 6.25 1.25V8.62793L8.96875 5.90918L8.98047 5.89648C12.7085 2.29248 17.6858 0.269544 22.8711 0.25H22.875Z" fill="black"/>
<path d="M33.2227 3.38867L33.3615 3.1808V3.1808L33.2227 3.38867ZM40.082 11.7471L40.313 11.6514V11.6514L40.082 11.7471ZM41.1426 22.5088L41.3878 22.5576V22.5576L41.1426 22.5088ZM36.0449 32.0449L35.8681 31.8681V31.8681L36.0449 32.0449ZM26.5088 37.1426L26.5576 37.3878H26.5576L26.5088 37.1426ZM15.7471 36.082L15.6514 36.313H15.6514L15.7471 36.082ZM7.38867 29.2227L7.1808 29.3615H7.1808L7.38867 29.2227ZM9.05176 28.1113L8.84389 28.2502V28.2502L9.05176 28.1113ZM16.5127 34.2344L16.417 34.4653H16.417L16.5127 34.2344ZM26.1182 35.1807L26.1669 35.4259H26.1669L26.1182 35.1807ZM39.1807 22.1182L39.4259 22.1669V22.1669L39.1807 22.1182ZM38.2344 12.5127L38.4653 12.417V12.417L38.2344 12.5127ZM32.1113 5.05176L32.2502 4.84389H32.2502L32.1113 5.05176ZM22.876 2.25L22.876 2L22.875 2L22.876 2.25ZM10.3711 7.33496L10.1973 7.15519L10.1943 7.15818L10.3711 7.33496ZM7.66406 10.042L7.48729 9.86522C7.41579 9.93672 7.3944 10.0442 7.43309 10.1377C7.47179 10.2311 7.56295 10.292 7.66406 10.292V10.042ZM15.042 10.042L15.0421 9.79199H15.042V10.042ZM16.042 11.042L16.292 11.0421V11.042H16.042ZM15.042 12.042V12.292H15.0421L15.042 12.042ZM5.08398 12.0264L5.04264 12.2729L5.04268 12.2729L5.08398 12.0264ZM5.05273 12.0215L5.00361 12.2666L5.00363 12.2666L5.05273 12.0215ZM5.02344 12.0146L5.07997 11.7711L5.07989 11.7711L5.02344 12.0146ZM4.95508 11.9971L4.88135 12.236L4.88156 12.236L4.95508 11.9971ZM4.81641 11.9424L4.92508 11.7172L4.92483 11.7171L4.81641 11.9424ZM4.69531 11.873L4.55629 12.0808L4.55635 12.0809L4.69531 11.873ZM4.41797 11.5957L4.62596 11.457L4.62595 11.457L4.41797 11.5957ZM4.26465 11.207L4.51125 11.166L4.51125 11.166L4.26465 11.207ZM4.25 11.042H4L4 11.0421L4.25 11.042ZM6.25 8.62793H6C6 8.72904 6.06091 8.8202 6.15433 8.8589C6.24775 8.89759 6.35528 8.87621 6.42678 8.80471L6.25 8.62793ZM8.96875 5.90918L9.14567 6.0861L9.15245 6.07875L8.96875 5.90918ZM8.98047 5.89648L8.80671 5.71674C8.8033 5.72004 8.79998 5.72343 8.79677 5.72691L8.98047 5.89648ZM22.8711 0.25V-1.78814e-06L22.8702 1.77324e-06L22.8711 0.25ZM22.875 0.25V0.5C26.5092 0.5 30.062 1.57747 33.0838 3.59654L33.2227 3.38867L33.3615 3.1808C30.2576 1.10679 26.6081 0 22.875 0V0.25ZM33.2227 3.38867L33.0838 3.59654C36.1054 5.61551 38.4603 8.48534 39.8511 11.8427L40.082 11.7471L40.313 11.6514C38.8844 8.20266 36.4654 5.25473 33.3615 3.1808L33.2227 3.38867ZM40.082 11.7471L39.8511 11.8427C41.2418 15.2004 41.6064 18.8956 40.8974 22.46L41.1426 22.5088L41.3878 22.5576C42.1161 18.8961 41.7416 15.1003 40.313 11.6514L40.082 11.7471ZM41.1426 22.5088L40.8974 22.46C40.1884 26.0243 38.4379 29.2984 35.8681 31.8681L36.0449 32.0449L36.2217 32.2217C38.8614 29.582 40.6595 26.2189 41.3878 22.5576L41.1426 22.5088ZM36.0449 32.0449L35.8681 31.8681C33.2984 34.4379 30.0243 36.1884 26.46 36.8974L26.5088 37.1426L26.5576 37.3878C30.2189 36.6595 33.582 34.8614 36.2217 32.2217L36.0449 32.0449ZM26.5088 37.1426L26.46 36.8974C22.8956 37.6064 19.2004 37.2418 15.8427 35.8511L15.7471 36.082L15.6514 36.313C19.1003 37.7416 22.8961 38.1161 26.5576 37.3878L26.5088 37.1426ZM15.7471 36.082L15.8427 35.8511C12.4853 34.4603 9.61551 32.1054 7.59654 29.0838L7.38867 29.2227L7.1808 29.3615C9.25473 32.4654 12.2027 34.8844 15.6514 36.313L15.7471 36.082ZM7.38867 29.2227L7.59654 29.0838C5.57747 26.062 4.5 22.5092 4.5 18.875H4.25H4C4 22.6081 5.10679 26.2576 7.1808 29.3615L7.38867 29.2227ZM4.25 18.875H4.5C4.5 18.4608 4.83579 18.125 5.25 18.125V17.875V17.625C4.55964 17.625 4 18.1846 4 18.875H4.25ZM5.25 17.875V18.125C5.66421 18.125 6 18.4608 6 18.875H6.25H6.5C6.5 18.1846 5.94036 17.625 5.25 17.625V17.875ZM6.25 18.875H6C6 22.2125 6.98966 25.4751 8.84389 28.2502L9.05176 28.1113L9.25963 27.9724C7.46034 25.2796 6.5 22.1137 6.5 18.875H6.25ZM9.05176 28.1113L8.84389 28.2502C10.6981 31.0252 13.3336 33.1881 16.417 34.4653L16.5127 34.2344L16.6084 34.0034C13.6163 32.764 11.0589 30.6652 9.25963 27.9724L9.05176 28.1113ZM16.5127 34.2344L16.417 34.4653C19.5004 35.7425 22.8936 36.0769 26.1669 35.4259L26.1182 35.1807L26.0694 34.9355C22.893 35.5672 19.6004 35.2428 16.6084 34.0034L16.5127 34.2344ZM26.1182 35.1807L26.1669 35.4259C29.4403 34.7747 32.4476 33.1677 34.8076 30.8076L34.6309 30.6309L34.4541 30.4541C32.164 32.7442 29.2458 34.3036 26.0694 34.9355L26.1182 35.1807ZM34.6309 30.6309L34.8076 30.8076C37.1677 28.4476 38.7747 25.4403 39.4259 22.1669L39.1807 22.1182L38.9355 22.0694C38.3036 25.2458 36.7442 28.164 34.4541 30.4541L34.6309 30.6309ZM39.1807 22.1182L39.4259 22.1669C40.0769 18.8936 39.7425 15.5004 38.4653 12.417L38.2344 12.5127L38.0034 12.6084C39.2428 15.6004 39.5672 18.893 38.9355 22.0694L39.1807 22.1182ZM38.2344 12.5127L38.4653 12.417C37.1881 9.33361 35.0252 6.6981 32.2502 4.84389L32.1113 5.05176L31.9724 5.25963C34.6652 7.05889 36.764 9.61632 38.0034 12.6084L38.2344 12.5127ZM32.1113 5.05176L32.2502 4.84389C29.4754 2.98984 26.2132 2.0002 22.876 2L22.876 2.25L22.876 2.5C26.1143 2.50019 29.2799 3.46052 31.9724 5.25963L32.1113 5.05176ZM22.876 2.25L22.875 2C18.1423 2.01853 13.6001 3.86573 10.1973 7.15522L10.3711 7.33496L10.5449 7.5147C13.8548 4.31487 18.2733 2.51802 22.877 2.5L22.876 2.25ZM10.3711 7.33496L10.1943 7.15818L7.48729 9.86522L7.66406 10.042L7.84084 10.2188L10.5479 7.51174L10.3711 7.33496ZM7.66406 10.042V10.292H15.042V10.042V9.79199H7.66406V10.042ZM15.042 10.042L15.0419 10.292C15.4561 10.2921 15.792 10.628 15.792 11.042H16.042H16.292C16.292 10.3517 15.7321 9.79221 15.0421 9.79199L15.042 10.042ZM16.042 11.042L15.792 11.0419C15.7919 11.4559 15.4559 11.7919 15.0419 11.792L15.042 12.042L15.0421 12.292C15.7321 12.2918 16.2918 11.7321 16.292 11.0421L16.042 11.042ZM15.042 12.042V11.792H5.25V12.042V12.292H15.042V12.042ZM5.25 12.042V11.792C5.21227 11.792 5.17189 11.7876 5.12529 11.7798L5.08398 12.0264L5.04268 12.2729C5.10426 12.2832 5.1744 12.292 5.25 12.292V12.042ZM5.08398 12.0264L5.12533 11.7798C5.12015 11.7789 5.11551 11.7782 5.11198 11.7777C5.1102 11.7775 5.10852 11.7772 5.10717 11.7771C5.10568 11.7768 5.10467 11.7767 5.1036 11.7765C5.0991 11.7759 5.09972 11.7759 5.10184 11.7764L5.05273 12.0215L5.00363 12.2666C5.0161 12.2691 5.02715 12.2707 5.03308 12.2716C5.0373 12.2722 5.03781 12.2722 5.04036 12.2726C5.04117 12.2727 5.04173 12.2728 5.04213 12.2728C5.04252 12.2729 5.04267 12.2729 5.04264 12.2729L5.08398 12.0264ZM5.05273 12.0215L5.10186 11.7764C5.10197 11.7764 5.10168 11.7763 5.10082 11.7761C5.09993 11.7759 5.09871 11.7756 5.09684 11.7752C5.09451 11.7746 5.09322 11.7743 5.0899 11.7735C5.08716 11.7728 5.08371 11.772 5.07997 11.7711L5.02344 12.0146L4.9669 12.2582C4.97035 12.259 4.97183 12.2594 4.97925 12.2612C4.98506 12.2626 4.99376 12.2646 5.00361 12.2666L5.05273 12.0215ZM5.02344 12.0146L5.07989 11.7711C5.05578 11.7655 5.04137 11.7621 5.0286 11.7581L4.95508 11.9971L4.88156 12.236C4.9139 12.246 4.94529 12.2532 4.96699 12.2582L5.02344 12.0146ZM4.95508 11.9971L5.0288 11.7582C4.99347 11.7473 4.95892 11.7336 4.92508 11.7172L4.81641 11.9424L4.70773 12.1675C4.76297 12.1942 4.82085 12.2173 4.88135 12.236L4.95508 11.9971ZM4.81641 11.9424L4.92483 11.7171C4.89414 11.7023 4.86396 11.6851 4.83427 11.6652L4.69531 11.873L4.55635 12.0809C4.60486 12.1133 4.65541 12.1423 4.70798 12.1676L4.81641 11.9424ZM4.69531 11.873L4.83433 11.6653C4.75161 11.6099 4.68076 11.5392 4.62596 11.457L4.41797 11.5957L4.20997 11.7344C4.30166 11.8719 4.41961 11.9894 4.55629 12.0808L4.69531 11.873ZM4.41797 11.5957L4.62595 11.457C4.56653 11.3679 4.52837 11.2688 4.51125 11.166L4.26465 11.207L4.01804 11.2481C4.04643 11.4186 4.11007 11.5846 4.20999 11.7344L4.41797 11.5957ZM4.26465 11.207L4.51125 11.166C4.50401 11.1225 4.50001 11.0815 4.5 11.0419L4.25 11.042L4 11.0421C4.00002 11.1151 4.00739 11.1841 4.01805 11.2481L4.26465 11.207ZM4.25 11.042H4.5V1.25H4.25H4V11.042H4.25ZM4.25 1.25H4.5C4.5 0.835786 4.83579 0.5 5.25 0.5V0.25V0C4.55964 0 4 0.559644 4 1.25H4.25ZM5.25 0.25V0.5C5.66421 0.5 6 0.835786 6 1.25H6.25H6.5C6.5 0.559644 5.94036 0 5.25 0V0.25ZM6.25 1.25H6V8.62793H6.25H6.5V1.25H6.25ZM6.25 8.62793L6.42678 8.80471L9.14553 6.08596L8.96875 5.90918L8.79197 5.7324L6.07322 8.45115L6.25 8.62793ZM8.96875 5.90918L9.15245 6.07875L9.16417 6.06605L8.98047 5.89648L8.79677 5.72691L8.78505 5.73961L8.96875 5.90918ZM8.98047 5.89648L9.15423 6.07623C12.8359 2.51708 17.7513 0.519299 22.872 0.499998L22.8711 0.25L22.8702 1.77324e-06C17.6204 0.0197886 12.5812 2.06789 8.80671 5.71674L8.98047 5.89648ZM22.8711 0.25V0.5H22.875V0.25V0H22.8711V0.25Z" fill="black"/>
</g>
<defs>
<filter id="filter0_d_41_129922" x="0" y="0" width="45.7505" height="45.7502" filterUnits="userSpaceOnUse" color-interpolation-filters="sRGB">
<feFlood flood-opacity="0" result="BackgroundImageFix"/>
<feColorMatrix in="SourceAlpha" type="matrix" values="0 0 0 0 0 0 0 0 0 0 0 0 0 0 0 0 0 0 127 0" result="hardAlpha"/>
<feOffset dy="4"/>
<feGaussianBlur stdDeviation="2"/>
<feComposite in2="hardAlpha" operator="out"/>
<feColorMatrix type="matrix" values="0 0 0 0 0 0 0 0 0 0 0 0 0 0 0 0 0 0 0.25 0"/>
<feBlend mode="normal" in2="BackgroundImageFix" result="effect1_dropShadow_41_129922"/>
<feBlend mode="normal" in="SourceGraphic" in2="effect1_dropShadow_41_129922" result="shape"/>
</filter>
</defs>
</svg>
